<svg width="64" height="64" fill="none" xmlns="http://www.w3.org/2000/svg"><path d="M8 32C8 18.745 18.745 8 32 8s24 10.745 24 24-10.745 24-24 24S8 45.255 8 32Z" fill="#fff"/><path d="M42.47 41.23H21.5a1.502 1.502 0 0 1-1.497-1.498V24.583c0-.813.663-1.497 1.498-1.497H42.47c.813 0 1.498.663 1.498 1.497v15.15c0 .834-.664 1.497-1.498 1.497z" fill="#e3e3e3"/><path opacity=".1" d="m22.999 41.23 8.965-7.21.064-.386-9.243-6.654-.022 13.93z" fill="#231f20"/><path d="M21.5 41.23a1.489 1.489 0 0 1-1.497-1.498v-15.17c0-.834.663-.984 1.498-.984.834 0 1.498.17 1.498.984V41.23Z" fill="#d54b3d"/><path fill-rule="evenodd" clip-rule="evenodd" d="M20.003 24.562c0-.813.663-.984 1.498-.984.834 0 1.498.15 1.498.984V41.23H21.5a1.489 1.489 0 0 1-1.498-1.498zm2.782 0c0-.45-.214-.77-1.284-.77s-1.284.3-1.284.77v15.17c0 .706.578 1.284 1.284 1.284h1.284z" fill="#d72b27"/><path d="M42.47 41.23h-1.498V24.52c0-.835.663-.942 1.498-.942.834 0 1.497.107 1.497.941v15.235c0 .813-.663 1.476-1.497 1.476z" fill="#d54b3d"/><path fill-rule="evenodd" clip-rule="evenodd" d="M40.972 24.52c0-.835.663-.942 1.498-.942.834 0 1.497.107 1.497.941v15.235c0 .834-.663 1.497-1.497 1.497h-1.498zm2.781 0c0-.536-.32-.728-1.283-.728-.963 0-1.284.17-1.284.727v16.518h1.284c.706 0 1.283-.577 1.283-1.283z" fill="#d72b27"/><path d="M36.05 41.23 20.13 25.184l.837.34 11.083 7.982 11.918-8.74v14.988c0 .813-.663 1.476-1.497 1.476z" fill="url(#a)" style="fill:url(#a)"/><path d="m31.964 34.02-11.319-8.217c-.663-.492-.856-1.434-.364-2.097a1.552 1.552 0 0 1 2.14-.32l9.564 6.953 9.629-7.04a1.488 1.488 0 0 1 2.097.343 1.488 1.488 0 0 1-.343 2.097z" fill="#d54b3d"/><path fill-rule="evenodd" clip-rule="evenodd" d="M41.592 23.278c.257-.192.578-.278.878-.278.47 0 .92.214 1.22.642.47.685.32 1.605-.343 2.097L31.964 34.04l-11.319-8.238c-.663-.492-.856-1.434-.385-2.097.3-.406.77-.62 1.24-.62.322 0 .643.085.9.278l9.564 6.954zm1.926.47a1.307 1.307 0 0 0-1.048-.534c-.279 0-.535.086-.77.235l-9.608 7.04-.128.085-.129-.085-9.542-6.933a1.237 1.237 0 0 0-.77-.256c-.429 0-.835.213-1.07.534-.407.557-.257 1.37.32 1.798l11.19 8.13 11.277-8.216c.556-.428.685-1.22.278-1.797z" fill="#d72b27"/><defs><linearGradient id="a" x1="12.129" y1="33.232" x2="35.975" y2="33.232" gradientUnits="userSpaceOnUse" gradientTransform="translate(8 8)"><stop stop-opacity=".1"/><stop offset="1" stop-opacity=".2"/></linearGradient></defs></svg>