<svg xml:space="preserve" width="64" height="64" xmlns="http://www.w3.org/2000/svg"><g transform="translate(8 8) scale(.09375)"><circle cx="256" cy="256" fill="#333" r="256"/><path d="M256 93.9c-89.5 0-162.1 72.6-162.1 162.1 0 70.5 45 130.4 107.8 152.8.3.1 1.4.5 1.7.6.9.3 1.9.5 2.9.5 5.3 0 9.5-4.3 9.5-9.5v-29c-10.3 2.1-25.9 4.1-34.4 0-11-5.3-16.6-12.1-21.9-25.5-6.6-16.3-21.8-20.8-22.4-23.6-.6-2.9 16.1-7.2 24.7 2.7 8.6 9.9 17.3 29.7 35.8 27.8 9.1-.9 15-2.4 18.7-3.5.7-6.4 2.8-14.3 8.1-19.9-43.5-7.2-72.5-30.6-72.5-76.5 0-20.9 6-37.1 16.6-49.2-1.8-10-4.8-33.2 3.2-41.3 0 0 11.3-7 43.7 15.8 12.1-2.8 25.5-4.2 39.8-4.2h1.6c14.4.1 27.8 1.5 39.8 4.2 32.4-22.8 43.7-15.8 43.7-15.8 8 8.2 5 31.4 3.2 41.3 10.6 12.2 16.6 28.4 16.6 49.2 0 45.9-28.9 69.3-72.5 76.5 8.3 8.7 8.6 22.8 8.6 28.6v42.5c0 5.3 4.3 9.5 9.5 9.5.8 0 1.5-.1 2.3-.3.2 0 .8-.2 1-.3 63.5-22 109.1-82.3 109.1-153.3 0-89.7-72.6-162.2-162.1-162.2Z" fill="#fff"/></g></svg>