<svg width="64" height="64" fill="none" xmlns="http://www.w3.org/2000/svg"><path d="M8 32C8 18.745 18.745 8 32 8s24 10.745 24 24-10.745 24-24 24S8 45.255 8 32Z" fill="#0077b5"/><path fill-rule="evenodd" clip-rule="evenodd" d="M25.319 22.823c0 1.569-1.181 2.824-3.078 2.824h-.035c-1.825 0-3.006-1.255-3.006-2.824C19.2 21.22 20.416 20 22.277 20c1.86 0 3.006 1.22 3.042 2.823zm-.358 5.055V44.22h-5.44V27.878ZM44.575 44.22v-9.37c0-5.02-2.683-7.356-6.262-7.356-2.888 0-4.18 1.586-4.902 2.699v-2.315h-5.44c.072 1.534 0 16.342 0 16.342h5.44v-9.127c0-.488.035-.975.179-1.325.393-.976 1.288-1.986 2.79-1.986 1.97 0 2.756 1.499 2.756 3.695v8.743z" fill="#fff"/></svg>