<?plantuml 1.2026.1?><svg xmlns="http://www.w3.org/2000/svg" xmlns:xlink="http://www.w3.org/1999/xlink" contentStyleType="text/css" data-diagram-type="MINDMAP" height="435px" preserveAspectRatio="none" style="width:492px;height:435px;background:#FFFFFF;" version="1.1" viewBox="0 0 492 435" width="492px" zoomAndPan="magnify"><defs/><g><rect fill="#F1F1F1" height="39.0679" rx="12.5" ry="12.5" style="stroke:#181818;stroke-width:1.5;" width="66.8438" x="10" y="197.2038"/><text fill="#000000" font-family="sans-serif" font-size="14" lengthAdjust="spacing" textLength="46.8438" x="20" y="222.1697">Debian</text><rect fill="#F1F1F1" height="39.0679" rx="12.5" ry="12.5" style="stroke:#181818;stroke-width:1.5;" width="69.8538" x="126.8438" y="108.6019"/><text fill="#000000" font-family="sans-serif" font-size="14" lengthAdjust="spacing" textLength="49.8538" x="136.8438" y="133.5678">Ubuntu</text><rect fill="#F1F1F1" height="39.0679" rx="12.5" ry="12.5" style="stroke:#181818;stroke-width:1.5;" width="89.3137" x="246.6976" y="20"/><text fill="#000000" font-family="sans-serif" font-size="14" lengthAdjust="spacing" textLength="69.3137" x="256.6976" y="44.9659">Linux Mint</text><path d="M196.6976,128.1358 L206.6976,128.1358 C221.6976,128.1358 221.6976,39.534 236.6976,39.534 L246.6976,39.534" fill="none" style="stroke:#181818;stroke-width:1;"/><rect fill="#F1F1F1" height="39.0679" rx="12.5" ry="12.5" style="stroke:#181818;stroke-width:1.5;" width="76.9378" x="246.6976" y="79.0679"/><text fill="#000000" font-family="sans-serif" font-size="14" lengthAdjust="spacing" textLength="56.9378" x="256.6976" y="104.0339">Kubuntu</text><path d="M196.6976,128.1358 L206.6976,128.1358 C221.6976,128.1358 221.6976,98.6019 236.6976,98.6019 L246.6976,98.6019" fill="none" style="stroke:#181818;stroke-width:1;"/><rect fill="#F1F1F1" height="39.0679" rx="12.5" ry="12.5" style="stroke:#181818;stroke-width:1.5;" width="75.6078" x="246.6976" y="138.1358"/><text fill="#000000" font-family="sans-serif" font-size="14" lengthAdjust="spacing" textLength="55.6078" x="256.6976" y="163.1018">Lubuntu</text><path d="M196.6976,128.1358 L206.6976,128.1358 C221.6976,128.1358 221.6976,157.6698 236.6976,157.6698 L246.6976,157.6698" fill="none" style="stroke:#181818;stroke-width:1;"/><rect fill="#F1F1F1" height="39.0679" rx="12.5" ry="12.5" style="stroke:#181818;stroke-width:1.5;" width="85.9677" x="246.6976" y="197.2038"/><text fill="#000000" font-family="sans-serif" font-size="14" lengthAdjust="spacing" textLength="65.9677" x="256.6976" y="222.1697">KDE Neon</text><path d="M196.6976,128.1358 L206.6976,128.1358 C221.6976,128.1358 221.6976,216.7377 236.6976,216.7377 L246.6976,216.7377" fill="none" style="stroke:#181818;stroke-width:1;"/><path d="M76.8438,216.7377 L86.8438,216.7377 C101.8438,216.7377 101.8438,128.1358 116.8438,128.1358 L126.8438,128.1358" fill="none" style="stroke:#181818;stroke-width:1;"/><rect fill="#F1F1F1" height="39.0679" rx="12.5" ry="12.5" style="stroke:#181818;stroke-width:1.5;" width="58.0378" x="126.8438" y="167.6698"/><text fill="#000000" font-family="sans-serif" font-size="14" lengthAdjust="spacing" textLength="38.0378" x="136.8438" y="192.6357">LMDE</text><path d="M76.8438,216.7377 L86.8438,216.7377 C101.8438,216.7377 101.8438,187.2038 116.8438,187.2038 L126.8438,187.2038" fill="none" style="stroke:#181818;stroke-width:1;"/><rect fill="#F1F1F1" height="39.0679" rx="12.5" ry="12.5" style="stroke:#181818;stroke-width:1.5;" width="72.3878" x="126.8438" y="226.7377"/><text fill="#000000" font-family="sans-serif" font-size="14" lengthAdjust="spacing" textLength="52.3878" x="136.8438" y="251.7036">SolydXK</text><path d="M76.8438,216.7377 L86.8438,216.7377 C101.8438,216.7377 101.8438,246.2717 116.8438,246.2717 L126.8438,246.2717" fill="none" style="stroke:#181818;stroke-width:1;"/><rect fill="#F1F1F1" height="39.0679" rx="12.5" ry="12.5" style="stroke:#181818;stroke-width:1.5;" width="80.1998" x="126.8438" y="285.8056"/><text fill="#000000" font-family="sans-serif" font-size="14" lengthAdjust="spacing" textLength="60.1998" x="136.8438" y="310.7716">SteamOS</text><path d="M76.8438,216.7377 L86.8438,216.7377 C101.8438,216.7377 101.8438,305.3396 116.8438,305.3396 L126.8438,305.3396" fill="none" style="stroke:#181818;stroke-width:1;"/><rect fill="#F1F1F1" height="39.0679" rx="12.5" ry="12.5" style="stroke:#181818;stroke-width:1.5;" width="229.7472" x="126.8438" y="344.8735"/><text fill="#000000" font-family="sans-serif" font-size="14" lengthAdjust="spacing" textLength="209.7472" x="136.8438" y="369.8395">Raspbian with a very long name</text><rect fill="#F1F1F1" height="39.0679" rx="12.5" ry="12.5" style="stroke:#181818;stroke-width:1.5;" width="60.1658" x="406.591" y="315.3396"/><text fill="#000000" font-family="sans-serif" font-size="14" lengthAdjust="spacing" textLength="40.1658" x="416.591" y="340.3055">OSMC</text><path d="M356.591,364.4075 L366.591,364.4075 C381.591,364.4075 381.591,334.8735 396.591,334.8735 L406.591,334.8735" fill="none" style="stroke:#181818;stroke-width:1;"/><rect fill="#F1F1F1" height="39.0679" rx="12.5" ry="12.5" style="stroke:#181818;stroke-width:1.5;" width="74.3058" x="406.591" y="374.4075"/><text fill="#000000" font-family="sans-serif" font-size="14" lengthAdjust="spacing" textLength="54.3058" x="416.591" y="399.3734">Volumio</text><path d="M356.591,364.4075 L366.591,364.4075 C381.591,364.4075 381.591,393.9415 396.591,393.9415 L406.591,393.9415" fill="none" style="stroke:#181818;stroke-width:1;"/><path d="M76.8438,216.7377 L86.8438,216.7377 C101.8438,216.7377 101.8438,364.4075 116.8438,364.4075 L126.8438,364.4075" fill="none" style="stroke:#181818;stroke-width:1;"/><?plantuml-src JSwx2iCm30NGtL-XsKDeCdGEr9cS1zIqT5M8QGss71AxRVw-iUcGIKS8IRTU0ox16PeSpeo3qAD1Ofp3ROmKuYuEhQ7uXSvGoAsCXz71KZJGQv-tsquqgIflj-aXCuD6DwZ4Awvp-WCV4rw0yDRB1jRJ4mYTpiS6rLqoxjv6PpohzPxndvELHNMgpaNv0m00?></g></svg>