<?plantuml 1.2026.1?><svg xmlns="http://www.w3.org/2000/svg" xmlns:xlink="http://www.w3.org/1999/xlink" contentStyleType="text/css" data-diagram-type="YAML" height="279px" preserveAspectRatio="none" style="width:641px;height:279px;background:#FFFFFF;" version="1.1" viewBox="0 0 641 279" width="641px" zoomAndPan="magnify"><defs/><g><rect fill="#F1F1F1" height="161.4754" rx="5" ry="5" style="stroke:#F1F1F1;stroke-width:1.5;" width="261.4851" x="10" y="10"/><text fill="#000000" font-family="sans-serif" font-size="14" font-weight="bold" lengthAdjust="spacing" textLength="25.8019" x="15" y="26.9659">doe</text><text fill="#000000" font-family="sans-serif" font-size="14" lengthAdjust="spacing" textLength="139.5515" x="126.9336" y="26.9659">a deer, a female deer</text><line style="stroke:#000000;stroke-width:1;" x1="121.9336" x2="121.9336" y1="10" y2="33.0679"/><line style="stroke:#000000;stroke-width:1;" x1="10" x2="271.4851" y1="33.0679" y2="33.0679"/><text fill="#000000" font-family="sans-serif" font-size="14" font-weight="bold" lengthAdjust="spacing" textLength="22.7779" x="15" y="50.0339">ray</text><text fill="#000000" font-family="sans-serif" font-size="14" lengthAdjust="spacing" textLength="137.0315" x="126.9336" y="50.0339">a drop of golden sun</text><line style="stroke:#000000;stroke-width:1;" x1="121.9336" x2="121.9336" y1="33.0679" y2="56.1358"/><line style="stroke:#000000;stroke-width:1;" x1="10" x2="271.4851" y1="56.1358" y2="56.1358"/><text fill="#000000" font-family="sans-serif" font-size="14" font-weight="bold" lengthAdjust="spacing" textLength="13.132" x="15" y="73.1018">pi</text><text fill="#000000" font-family="sans-serif" font-size="14" lengthAdjust="spacing" textLength="51.7998" x="126.9336" y="73.1018">3.14159</text><line style="stroke:#000000;stroke-width:1;" x1="121.9336" x2="121.9336" y1="56.1358" y2="79.2038"/><line style="stroke:#000000;stroke-width:1;" x1="10" x2="271.4851" y1="79.2038" y2="79.2038"/><text fill="#000000" font-family="sans-serif" font-size="14" font-weight="bold" lengthAdjust="spacing" textLength="37.2538" x="15" y="96.1697">xmas</text><text fill="#000000" font-family="sans-serif" font-size="14" lengthAdjust="spacing" textLength="27.3839" x="126.9336" y="96.1697">true</text><line style="stroke:#000000;stroke-width:1;" x1="121.9336" x2="121.9336" y1="79.2038" y2="102.2717"/><line style="stroke:#000000;stroke-width:1;" x1="10" x2="271.4851" y1="102.2717" y2="102.2717"/><text fill="#000000" font-family="sans-serif" font-size="14" font-weight="bold" lengthAdjust="spacing" textLength="83.7757" x="15" y="119.2376">french-hens</text><text fill="#000000" font-family="sans-serif" font-size="14" lengthAdjust="spacing" textLength="8.008" x="126.9336" y="119.2376">3</text><line style="stroke:#000000;stroke-width:1;" x1="121.9336" x2="121.9336" y1="102.2717" y2="125.3396"/><line style="stroke:#000000;stroke-width:1;" x1="10" x2="271.4851" y1="125.3396" y2="125.3396"/><text fill="#000000" font-family="sans-serif" font-size="14" font-weight="bold" lengthAdjust="spacing" textLength="86.3377" x="15" y="142.3055">calling-birds</text><text fill="#000000" font-family="sans-serif" font-size="14" lengthAdjust="spacing" textLength="10.92" x="126.9336" y="142.3055">&#160;&#160;&#160;</text><line style="stroke:#000000;stroke-width:1;" x1="121.9336" x2="121.9336" y1="125.3396" y2="148.4075"/><line style="stroke:#000000;stroke-width:1;" x1="10" x2="271.4851" y1="148.4075" y2="148.4075"/><text fill="#000000" font-family="sans-serif" font-size="14" font-weight="bold" lengthAdjust="spacing" textLength="101.9336" x="15" y="165.3734">xmas-fifth-day</text><text fill="#000000" font-family="sans-serif" font-size="14" lengthAdjust="spacing" textLength="10.92" x="126.9336" y="165.3734">&#160;&#160;&#160;</text><line style="stroke:#000000;stroke-width:1;" x1="121.9336" x2="121.9336" y1="148.4075" y2="171.4754"/><rect fill="none" height="161.4754" rx="5" ry="5" style="stroke:#000000;stroke-width:1.5;" width="261.4851" x="10" y="10"/><rect fill="#F1F1F1" height="92.2717" rx="5" ry="5" style="stroke:#F1F1F1;stroke-width:1.5;" width="52.5458" x="349.5" y="41.6019"/><text fill="#000000" font-family="sans-serif" font-size="14" lengthAdjust="spacing" textLength="32.3399" x="354.5" y="58.5678">huey</text><line style="stroke:#000000;stroke-width:1;" x1="349.5" x2="402.0458" y1="64.6698" y2="64.6698"/><text fill="#000000" font-family="sans-serif" font-size="14" lengthAdjust="spacing" textLength="42.5458" x="354.5" y="81.6357">dewey</text><line style="stroke:#000000;stroke-width:1;" x1="349.5" x2="402.0458" y1="87.7377" y2="87.7377"/><text fill="#000000" font-family="sans-serif" font-size="14" lengthAdjust="spacing" textLength="32.2419" x="354.5" y="104.7036">louie</text><line style="stroke:#000000;stroke-width:1;" x1="349.5" x2="402.0458" y1="110.8056" y2="110.8056"/><text fill="#000000" font-family="sans-serif" font-size="14" lengthAdjust="spacing" textLength="27.1039" x="354.5" y="127.7716">fred</text><rect fill="none" height="92.2717" rx="5" ry="5" style="stroke:#000000;stroke-width:1.5;" width="52.5458" x="349.5" y="41.6019"/><rect fill="#F1F1F1" height="115.3396" rx="5" ry="5" style="stroke:#F1F1F1;stroke-width:1.5;" width="136.0036" x="308" y="152.0679"/><text fill="#000000" font-family="sans-serif" font-size="14" font-weight="bold" lengthAdjust="spacing" textLength="86.3377" x="313" y="169.0339">calling-birds</text><text fill="#000000" font-family="sans-serif" font-size="14" lengthAdjust="spacing" textLength="27.7199" x="411.2837" y="169.0339">four</text><line style="stroke:#000000;stroke-width:1;" x1="406.2837" x2="406.2837" y1="152.0679" y2="175.1358"/><line style="stroke:#000000;stroke-width:1;" x1="308" x2="444.0036" y1="175.1358" y2="175.1358"/><text fill="#000000" font-family="sans-serif" font-size="14" font-weight="bold" lengthAdjust="spacing" textLength="83.7757" x="313" y="192.1018">french-hens</text><text fill="#000000" font-family="sans-serif" font-size="14" lengthAdjust="spacing" textLength="8.008" x="411.2837" y="192.1018">3</text><line style="stroke:#000000;stroke-width:1;" x1="406.2837" x2="406.2837" y1="175.1358" y2="198.2038"/><line style="stroke:#000000;stroke-width:1;" x1="308" x2="444.0036" y1="198.2038" y2="198.2038"/><text fill="#000000" font-family="sans-serif" font-size="14" font-weight="bold" lengthAdjust="spacing" textLength="88.2837" x="313" y="215.1697">golden-rings</text><text fill="#000000" font-family="sans-serif" font-size="14" lengthAdjust="spacing" textLength="8.008" x="411.2837" y="215.1697">5</text><line style="stroke:#000000;stroke-width:1;" x1="406.2837" x2="406.2837" y1="198.2038" y2="221.2717"/><line style="stroke:#000000;stroke-width:1;" x1="308" x2="444.0036" y1="221.2717" y2="221.2717"/><text fill="#000000" font-family="sans-serif" font-size="14" font-weight="bold" lengthAdjust="spacing" textLength="73.3317" x="313" y="238.2376">partridges</text><text fill="#000000" font-family="sans-serif" font-size="14" lengthAdjust="spacing" textLength="10.92" x="411.2837" y="238.2376">&#160;&#160;&#160;</text><line style="stroke:#000000;stroke-width:1;" x1="406.2837" x2="406.2837" y1="221.2717" y2="244.3396"/><line style="stroke:#000000;stroke-width:1;" x1="308" x2="444.0036" y1="244.3396" y2="244.3396"/><text fill="#000000" font-family="sans-serif" font-size="14" font-weight="bold" lengthAdjust="spacing" textLength="85.4837" x="313" y="261.3055">turtle-doves</text><text fill="#000000" font-family="sans-serif" font-size="14" lengthAdjust="spacing" textLength="24.5279" x="411.2837" y="261.3055">two</text><line style="stroke:#000000;stroke-width:1;" x1="406.2837" x2="406.2837" y1="244.3396" y2="267.4075"/><rect fill="none" height="115.3396" rx="5" ry="5" style="stroke:#000000;stroke-width:1.5;" width="136.0036" x="308" y="152.0679"/><rect fill="#F1F1F1" height="46.1358" rx="5" ry="5" style="stroke:#F1F1F1;stroke-width:1.5;" width="148.7015" x="481" y="209.6698"/><text fill="#000000" font-family="sans-serif" font-size="14" font-weight="bold" lengthAdjust="spacing" textLength="40.3338" x="486" y="226.6357">count</text><text fill="#000000" font-family="sans-serif" font-size="14" lengthAdjust="spacing" textLength="8.008" x="552.7978" y="226.6357">1</text><line style="stroke:#000000;stroke-width:1;" x1="547.7978" x2="547.7978" y1="209.6698" y2="232.7377"/><line style="stroke:#000000;stroke-width:1;" x1="481" x2="629.7015" y1="232.7377" y2="232.7377"/><text fill="#000000" font-family="sans-serif" font-size="14" font-weight="bold" lengthAdjust="spacing" textLength="56.7978" x="486" y="249.7036">location</text><text fill="#000000" font-family="sans-serif" font-size="14" lengthAdjust="spacing" textLength="71.9037" x="552.7978" y="249.7036">a pear tree</text><line style="stroke:#000000;stroke-width:1;" x1="547.7978" x2="547.7978" y1="232.7377" y2="255.8056"/><rect fill="none" height="46.1358" rx="5" ry="5" style="stroke:#000000;stroke-width:1.5;" width="148.7015" x="481" y="209.6698"/><path d="M259,136.7377 L272,136.7377 C297.7207,136.7377 323.8783,124.2231 343.4621,111.8429" fill="none" style="stroke:#000000;stroke-width:1;stroke-dasharray:3,3;"/><path d="M345.1322,114.3947 L345.3759,110.5904 L341.7921,109.2912 L349.8415,107.6679 L345.1322,114.3947" fill="#000000"/><ellipse cx="259" cy="136.7377" fill="#000000" rx="3" ry="3" style="stroke:#000000;stroke-width:1;"/><path d="M431.5,232.7377 L444.5,232.7377 C453.9781,232.7377 463.9135,232.7377 473.7767,232.7377" fill="none" style="stroke:#000000;stroke-width:1;stroke-dasharray:3,3;"/><path d="M473.7767,235.7455 L476.0326,232.7377 L473.7767,229.7299 L481.2963,232.7377 L473.7767,235.7455" fill="#000000"/><ellipse cx="431.5" cy="232.7377" fill="#000000" rx="3" ry="3" style="stroke:#000000;stroke-width:1;"/><path d="M259,159.7377 L272,159.7377 C281.7798,159.7377 291.6083,161.5701 301.1084,164.5333" fill="none" style="stroke:#000000;stroke-width:1;stroke-dasharray:3,3;"/><path d="M300.1184,167.4111 L303.2667,165.2758 L302.0983,161.6555 L308.3029,167.0081 L300.1184,167.4111" fill="#000000"/><ellipse cx="259" cy="159.7377" fill="#000000" rx="3" ry="3" style="stroke:#000000;stroke-width:1;"/><?plantuml-src NP31RiCW44JlVCNAvsALfAbKd_8hM-zY8s7MMaDI_tq9iIArd8QtQ7Q6wvPHyuvBD2GyG8T0pFe629uNZDokdL7SdqEL5SJ3994umLPIPzOmmBbt7-xoPNuMt0R8MjXuvJJETkPKoTcC66D8a_qEIjjWe1uBS-7zaCJtbuvI0X-wsb2pjJxuF5kgITheho5uAThulxqFz4nhjJwlxDBOMdjhe8cFCCrIIie3k1U8Cc8EabhtbL5hDUQkpNFH7DcItFXH-IxcoedQLnhNdzvFdxtx1G00?></g></svg>