<?plantuml 1.2026.1?><svg xmlns="http://www.w3.org/2000/svg" xmlns:xlink="http://www.w3.org/1999/xlink" contentStyleType="text/css" data-diagram-type="ACTIVITY" height="191px" preserveAspectRatio="none" style="width:203px;height:191px;background:#FFFFFF;" version="1.1" viewBox="0 0 203 191" width="203px" zoomAndPan="magnify"><defs/><g><ellipse cx="101.5803" cy="20" fill="#222222" rx="10" ry="10" style="stroke:#222222;stroke-width:1;"/><rect fill="#555555" height="6" rx="2.5" ry="2.5" style="stroke:#555555;stroke-width:1;" width="181.1606" x="11" y="50"/><rect fill="#F1F1F1" height="36.3441" rx="12.5" ry="12.5" style="stroke:#181818;stroke-width:0.5;" width="64.5803" x="23" y="76"/><text fill="#000000" font-family="sans-serif" font-size="12" lengthAdjust="spacing" textLength="44.5803" x="33" y="98.8281">action 1</text><rect fill="#F1F1F1" height="36.3441" rx="12.5" ry="12.5" style="stroke:#181818;stroke-width:0.5;" width="64.5803" x="115.5803" y="76"/><text fill="#000000" font-family="sans-serif" font-size="12" lengthAdjust="spacing" textLength="44.5803" x="125.5803" y="98.8281">action 2</text><rect fill="#555555" height="6" rx="2.5" ry="2.5" style="stroke:#555555;stroke-width:1;" width="181.1606" x="11" y="132.3441"/><ellipse cx="101.5803" cy="169.3441" fill="none" rx="11" ry="11" style="stroke:#222222;stroke-width:1;"/><ellipse cx="101.5803" cy="169.3441" fill="#222222" rx="6" ry="6" style="stroke:#222222;stroke-width:1;"/><line style="stroke:#181818;stroke-width:1;" x1="55.2902" x2="55.2902" y1="56" y2="76"/><polygon fill="#181818" points="51.2902,66,55.2902,76,59.2902,66,55.2902,70" style="stroke:#181818;stroke-width:1;"/><line style="stroke:#181818;stroke-width:1;" x1="147.8705" x2="147.8705" y1="56" y2="76"/><polygon fill="#181818" points="143.8705,66,147.8705,76,151.8705,66,147.8705,70" style="stroke:#181818;stroke-width:1;"/><line style="stroke:#181818;stroke-width:1;" x1="55.2902" x2="55.2902" y1="112.3441" y2="132.3441"/><polygon fill="#181818" points="51.2902,122.3441,55.2902,132.3441,59.2902,122.3441,55.2902,126.3441" style="stroke:#181818;stroke-width:1;"/><line style="stroke:#181818;stroke-width:1;" x1="147.8705" x2="147.8705" y1="112.3441" y2="132.3441"/><polygon fill="#181818" points="143.8705,122.3441,147.8705,132.3441,151.8705,122.3441,147.8705,126.3441" style="stroke:#181818;stroke-width:1;"/><line style="stroke:#181818;stroke-width:1;" x1="101.5803" x2="101.5803" y1="30" y2="50"/><polygon fill="#181818" points="97.5803,40,101.5803,50,105.5803,40,101.5803,44" style="stroke:#181818;stroke-width:1;"/><line style="stroke:#181818;stroke-width:1;" x1="101.5803" x2="101.5803" y1="138.3441" y2="158.3441"/><polygon fill="#181818" points="97.5803,148.3441,101.5803,158.3441,105.5803,148.3441,101.5803,152.3441" style="stroke:#181818;stroke-width:1;"/><?plantuml-src Aov9B2hXIiilokPI00AhnEIIpFmy1KDhi9X2OdfYPXwAZ94rLsfUYW9OHt59VW40?></g></svg>