<?plantuml 1.2026.1?><svg xmlns="http://www.w3.org/2000/svg" xmlns:xlink="http://www.w3.org/1999/xlink" contentStyleType="text/css" data-diagram-type="ACTIVITY" height="218px" preserveAspectRatio="none" style="width:506px;height:218px;background:#FFFFFF;" version="1.1" viewBox="0 0 506 218" width="506px" zoomAndPan="magnify"><defs/><g><ellipse cx="252.7271" cy="20" fill="#222222" rx="10" ry="10" style="stroke:#222222;stroke-width:1;"/><polygon fill="#F1F1F1" points="32,50,90.4866,50,102.4866,62,90.4866,74,32,74,20,62,32,50" style="stroke:#181818;stroke-width:0.5;"/><text fill="#000000" font-family="sans-serif" font-size="11" lengthAdjust="spacing" textLength="17.0829" x="65.2433" y="85.7589">yes</text><text fill="#000000" font-family="sans-serif" font-size="11" lengthAdjust="spacing" textLength="58.4866" x="32" y="66.268">condition A</text><rect fill="#F1F1F1" height="36.3441" rx="12.5" ry="12.5" style="stroke:#181818;stroke-width:0.5;" width="54.1042" x="34.1912" y="108.9819"/><text fill="#000000" font-family="sans-serif" font-size="12" lengthAdjust="spacing" textLength="34.1042" x="44.1912" y="131.81">Text 1</text><polygon fill="#F1F1F1" points="137.9395,50,196.5471,50,208.5471,62,196.5471,74,137.9395,74,125.9395,62,137.9395,50" style="stroke:#181818;stroke-width:0.5;"/><text fill="#000000" font-family="sans-serif" font-size="11" lengthAdjust="spacing" textLength="17.0829" x="171.2433" y="85.7589">yes</text><text fill="#000000" font-family="sans-serif" font-size="11" lengthAdjust="spacing" textLength="58.6076" x="137.9395" y="66.268">condition B</text><text fill="#000000" font-family="sans-serif" font-size="11" lengthAdjust="spacing" textLength="13.4529" x="112.4866" y="58.777">no</text><rect fill="#F1F1F1" height="36.3441" rx="12.5" ry="12.5" style="stroke:#181818;stroke-width:0.5;" width="54.1042" x="140.1912" y="108.9819"/><text fill="#000000" font-family="sans-serif" font-size="12" lengthAdjust="spacing" textLength="34.1042" x="150.1912" y="131.81">Text 2</text><polygon fill="#F1F1F1" points="244,50,302.4096,50,314.4096,62,302.4096,74,244,74,232,62,244,50" style="stroke:#181818;stroke-width:0.5;"/><text fill="#000000" font-family="sans-serif" font-size="11" lengthAdjust="spacing" textLength="17.0829" x="277.2048" y="85.7589">yes</text><text fill="#000000" font-family="sans-serif" font-size="11" lengthAdjust="spacing" textLength="58.4096" x="244" y="66.268">condition C</text><text fill="#000000" font-family="sans-serif" font-size="11" lengthAdjust="spacing" textLength="13.4529" x="218.5471" y="58.777">no</text><rect fill="#F1F1F1" height="36.3441" rx="12.5" ry="12.5" style="stroke:#181818;stroke-width:0.5;" width="54.1042" x="246.1526" y="108.9819"/><text fill="#000000" font-family="sans-serif" font-size="12" lengthAdjust="spacing" textLength="34.1042" x="256.1526" y="131.81">Text 3</text><polygon fill="#F1F1F1" points="349.8625,50,409.35,50,421.35,62,409.35,74,349.8625,74,337.8625,62,349.8625,50" style="stroke:#181818;stroke-width:0.5;"/><text fill="#000000" font-family="sans-serif" font-size="11" lengthAdjust="spacing" textLength="17.0829" x="383.6062" y="85.7589">yes</text><text fill="#000000" font-family="sans-serif" font-size="11" lengthAdjust="spacing" textLength="59.4876" x="349.8625" y="66.268">condition D</text><text fill="#000000" font-family="sans-serif" font-size="11" lengthAdjust="spacing" textLength="13.4529" x="324.4096" y="58.777">no</text><text fill="#000000" font-family="sans-serif" font-size="11" lengthAdjust="spacing" textLength="13.4529" x="421.35" y="58.777">no</text><rect fill="#F1F1F1" height="36.3441" rx="12.5" ry="12.5" style="stroke:#181818;stroke-width:0.5;" width="54.1042" x="352.5541" y="108.9819"/><text fill="#000000" font-family="sans-serif" font-size="12" lengthAdjust="spacing" textLength="34.1042" x="362.5541" y="131.81">Text 4</text><rect fill="#F1F1F1" height="36.3441" rx="12.5" ry="12.5" style="stroke:#181818;stroke-width:0.5;" width="54.1042" x="441.35" y="104.4909"/><text fill="#000000" font-family="sans-serif" font-size="12" lengthAdjust="spacing" textLength="34.1042" x="451.35" y="127.319">Text 5</text><ellipse cx="252.7271" cy="196.326" fill="none" rx="11" ry="11" style="stroke:#222222;stroke-width:1;"/><ellipse cx="252.7271" cy="196.326" fill="#222222" rx="6" ry="6" style="stroke:#222222;stroke-width:1;"/><line style="stroke:#181818;stroke-width:1;" x1="61.2433" x2="61.2433" y1="74" y2="108.9819"/><polygon fill="#181818" points="57.2433,98.9819,61.2433,108.9819,65.2433,98.9819,61.2433,102.9819" style="stroke:#181818;stroke-width:1;"/><line style="stroke:#181818;stroke-width:1;" x1="61.2433" x2="61.2433" y1="145.326" y2="165.326"/><polygon fill="#181818" points="57.2433,155.326,61.2433,165.326,65.2433,155.326,61.2433,159.326" style="stroke:#181818;stroke-width:1;"/><line style="stroke:#181818;stroke-width:1;" x1="167.2433" x2="167.2433" y1="74" y2="108.9819"/><polygon fill="#181818" points="163.2433,98.9819,167.2433,108.9819,171.2433,98.9819,167.2433,102.9819" style="stroke:#181818;stroke-width:1;"/><line style="stroke:#181818;stroke-width:1;" x1="167.2433" x2="167.2433" y1="145.326" y2="165.326"/><polygon fill="#181818" points="163.2433,155.326,167.2433,165.326,171.2433,155.326,167.2433,159.326" style="stroke:#181818;stroke-width:1;"/><line style="stroke:#181818;stroke-width:1;" x1="273.2048" x2="273.2048" y1="74" y2="108.9819"/><polygon fill="#181818" points="269.2048,98.9819,273.2048,108.9819,277.2048,98.9819,273.2048,102.9819" style="stroke:#181818;stroke-width:1;"/><line style="stroke:#181818;stroke-width:1;" x1="273.2048" x2="273.2048" y1="145.326" y2="165.326"/><polygon fill="#181818" points="269.2048,155.326,273.2048,165.326,277.2048,155.326,273.2048,159.326" style="stroke:#181818;stroke-width:1;"/><line style="stroke:#181818;stroke-width:1;" x1="379.6062" x2="379.6062" y1="74" y2="108.9819"/><polygon fill="#181818" points="375.6062,98.9819,379.6062,108.9819,383.6062,98.9819,379.6062,102.9819" style="stroke:#181818;stroke-width:1;"/><line style="stroke:#181818;stroke-width:1;" x1="379.6062" x2="379.6062" y1="145.326" y2="165.326"/><polygon fill="#181818" points="375.6062,155.326,379.6062,165.326,383.6062,155.326,379.6062,159.326" style="stroke:#181818;stroke-width:1;"/><line style="stroke:#181818;stroke-width:1;" x1="102.4866" x2="125.9395" y1="62" y2="62"/><polygon fill="#181818" points="115.9395,58,125.9395,62,115.9395,66,119.9395,62" style="stroke:#181818;stroke-width:1;"/><line style="stroke:#181818;stroke-width:1;" x1="208.5471" x2="232" y1="62" y2="62"/><polygon fill="#181818" points="222,58,232,62,222,66,226,62" style="stroke:#181818;stroke-width:1;"/><line style="stroke:#181818;stroke-width:1;" x1="314.4096" x2="337.8625" y1="62" y2="62"/><polygon fill="#181818" points="327.8625,58,337.8625,62,327.8625,66,331.8625,62" style="stroke:#181818;stroke-width:1;"/><line style="stroke:#181818;stroke-width:1;" x1="252.7271" x2="252.7271" y1="30" y2="35"/><line style="stroke:#181818;stroke-width:1;" x1="252.7271" x2="61.2433" y1="35" y2="35"/><line style="stroke:#181818;stroke-width:1;" x1="61.2433" x2="61.2433" y1="35" y2="50"/><polygon fill="#181818" points="57.2433,40,61.2433,50,65.2433,40,61.2433,44" style="stroke:#181818;stroke-width:1;"/><line style="stroke:#181818;stroke-width:1;" x1="421.35" x2="468.4022" y1="62" y2="62"/><line style="stroke:#181818;stroke-width:1;" x1="468.4022" x2="468.4022" y1="62" y2="104.4909"/><polygon fill="#181818" points="464.4022,94.4909,468.4022,104.4909,472.4022,94.4909,468.4022,98.4909" style="stroke:#181818;stroke-width:1;"/><line style="stroke:#181818;stroke-width:1;" x1="468.4022" x2="468.4022" y1="140.8351" y2="165.326"/><polygon fill="#181818" points="464.4022,155.326,468.4022,165.326,472.4022,155.326,468.4022,159.326" style="stroke:#181818;stroke-width:1;"/><line style="stroke:#181818;stroke-width:1;" x1="61.2433" x2="468.4022" y1="165.326" y2="165.326"/><line style="stroke:#181818;stroke-width:1;" x1="252.7271" x2="252.7271" y1="165.326" y2="185.326"/><polygon fill="#181818" points="248.7271,175.326,252.7271,185.326,256.7271,175.326,252.7271,179.326" style="stroke:#181818;stroke-width:1;"/><?plantuml-src Aov9B2hXoanJq4ZEpql9BCdCprDmr5GeoKZDKz2eJ2tMv5800gkGr8eI1KDhBesyV4s5r9pYL5GTJZXq6E7KuOn3Xp5E7IuuT9XOSu4KAu2q8GcR0eM1MjEuYalo2m00?></g></svg>