<?plantuml 1.2026.1?><svg xmlns="http://www.w3.org/2000/svg" xmlns:xlink="http://www.w3.org/1999/xlink" contentStyleType="text/css" data-diagram-type="JSON" height="213px" preserveAspectRatio="none" style="width:638px;height:213px;background:#FFFFFF;" version="1.1" viewBox="0 0 638 213" width="638px" zoomAndPan="magnify"><defs/><g><rect fill="#F1F1F1" height="184.5433" rx="5" ry="5" style="stroke:#F1F1F1;stroke-width:1.5;" width="172.5503" x="10" y="16.6358"/><text fill="#000000" font-family="sans-serif" font-size="14" font-weight="bold" lengthAdjust="spacing" textLength="70.9377" x="15" y="33.6018">firstName</text><text fill="#000000" font-family="sans-serif" font-size="14" lengthAdjust="spacing" textLength="29.5959" x="133.9756" y="33.6018">John</text><line style="stroke:#000000;stroke-width:1;" x1="128.9756" x2="128.9756" y1="16.6358" y2="39.7038"/><line style="stroke:#000000;stroke-width:1;" x1="10" x2="182.5503" y1="39.7038" y2="39.7038"/><text fill="#000000" font-family="sans-serif" font-size="14" font-weight="bold" lengthAdjust="spacing" textLength="67.6197" x="15" y="56.6697">lastName</text><text fill="#000000" font-family="sans-serif" font-size="14" lengthAdjust="spacing" textLength="38.0939" x="133.9756" y="56.6697">Smith</text><line style="stroke:#000000;stroke-width:1;" x1="128.9756" x2="128.9756" y1="39.7038" y2="62.7717"/><line style="stroke:#000000;stroke-width:1;" x1="10" x2="182.5503" y1="62.7717" y2="62.7717"/><text fill="#000000" font-family="sans-serif" font-size="14" font-weight="bold" lengthAdjust="spacing" textLength="45.6678" x="15" y="79.7376">isAlive</text><text fill="#000000" font-family="sans-serif" font-size="14" lengthAdjust="spacing" textLength="43.5747" x="133.9756" y="79.7376">&#9745; true</text><line style="stroke:#000000;stroke-width:1;" x1="128.9756" x2="128.9756" y1="62.7717" y2="85.8396"/><line style="stroke:#000000;stroke-width:1;" x1="10" x2="182.5503" y1="85.8396" y2="85.8396"/><text fill="#000000" font-family="sans-serif" font-size="14" font-weight="bold" lengthAdjust="spacing" textLength="25.5919" x="15" y="102.8055">age</text><text fill="#000000" font-family="sans-serif" font-size="14" lengthAdjust="spacing" textLength="16.0159" x="133.9756" y="102.8055">27</text><line style="stroke:#000000;stroke-width:1;" x1="128.9756" x2="128.9756" y1="85.8396" y2="108.9075"/><line style="stroke:#000000;stroke-width:1;" x1="10" x2="182.5503" y1="108.9075" y2="108.9075"/><text fill="#000000" font-family="sans-serif" font-size="14" font-weight="bold" lengthAdjust="spacing" textLength="54.7258" x="15" y="125.8734">address</text><text fill="#000000" font-family="sans-serif" font-size="14" lengthAdjust="spacing" textLength="10.92" x="133.9756" y="125.8734">&#160;&#160;&#160;</text><line style="stroke:#000000;stroke-width:1;" x1="128.9756" x2="128.9756" y1="108.9075" y2="131.9754"/><line style="stroke:#000000;stroke-width:1;" x1="10" x2="182.5503" y1="131.9754" y2="131.9754"/><text fill="#000000" font-family="sans-serif" font-size="14" font-weight="bold" lengthAdjust="spacing" textLength="108.9756" x="15" y="148.9414">phoneNumbers</text><text fill="#000000" font-family="sans-serif" font-size="14" lengthAdjust="spacing" textLength="10.92" x="133.9756" y="148.9414">&#160;&#160;&#160;</text><line style="stroke:#000000;stroke-width:1;" x1="128.9756" x2="128.9756" y1="131.9754" y2="155.0433"/><line style="stroke:#000000;stroke-width:1;" x1="10" x2="182.5503" y1="155.0433" y2="155.0433"/><text fill="#000000" font-family="sans-serif" font-size="14" font-weight="bold" lengthAdjust="spacing" textLength="57.6238" x="15" y="172.0093">children</text><text fill="#000000" font-family="sans-serif" font-size="14" lengthAdjust="spacing" textLength="10.92" x="133.9756" y="172.0093">&#160;&#160;&#160;</text><line style="stroke:#000000;stroke-width:1;" x1="128.9756" x2="128.9756" y1="155.0433" y2="178.1113"/><line style="stroke:#000000;stroke-width:1;" x1="10" x2="182.5503" y1="178.1113" y2="178.1113"/><text fill="#000000" font-family="sans-serif" font-size="14" font-weight="bold" lengthAdjust="spacing" textLength="48.9158" x="15" y="195.0772">spouse</text><text fill="#000000" font-family="sans-serif" font-size="14" lengthAdjust="spacing" textLength="14" x="133.9756" y="195.0772">&#9216;</text><line style="stroke:#000000;stroke-width:1;" x1="128.9756" x2="128.9756" y1="178.1113" y2="201.1792"/><rect fill="none" height="184.5433" rx="5" ry="5" style="stroke:#000000;stroke-width:1.5;" width="172.5503" x="10" y="16.6358"/><rect fill="#F1F1F1" height="92.2717" rx="5" ry="5" style="stroke:#F1F1F1;stroke-width:1.5;" width="205.8773" x="220" y="10"/><text fill="#000000" font-family="sans-serif" font-size="14" font-weight="bold" lengthAdjust="spacing" textLength="97.9436" x="225" y="26.9659">streetAddress</text><text fill="#000000" font-family="sans-serif" font-size="14" lengthAdjust="spacing" textLength="87.9337" x="332.9436" y="26.9659">21 2nd Street</text><line style="stroke:#000000;stroke-width:1;" x1="327.9436" x2="327.9436" y1="10" y2="33.0679"/><line style="stroke:#000000;stroke-width:1;" x1="220" x2="425.8773" y1="33.0679" y2="33.0679"/><text fill="#000000" font-family="sans-serif" font-size="14" font-weight="bold" lengthAdjust="spacing" textLength="25.5079" x="225" y="50.0339">city</text><text fill="#000000" font-family="sans-serif" font-size="14" lengthAdjust="spacing" textLength="62.8317" x="332.9436" y="50.0339">New York</text><line style="stroke:#000000;stroke-width:1;" x1="327.9436" x2="327.9436" y1="33.0679" y2="56.1358"/><line style="stroke:#000000;stroke-width:1;" x1="220" x2="425.8773" y1="56.1358" y2="56.1358"/><text fill="#000000" font-family="sans-serif" font-size="14" font-weight="bold" lengthAdjust="spacing" textLength="35.8399" x="225" y="73.1018">state</text><text fill="#000000" font-family="sans-serif" font-size="14" lengthAdjust="spacing" textLength="18.5639" x="332.9436" y="73.1018">NY</text><line style="stroke:#000000;stroke-width:1;" x1="327.9436" x2="327.9436" y1="56.1358" y2="79.2038"/><line style="stroke:#000000;stroke-width:1;" x1="220" x2="425.8773" y1="79.2038" y2="79.2038"/><text fill="#000000" font-family="sans-serif" font-size="14" font-weight="bold" lengthAdjust="spacing" textLength="78.0077" x="225" y="96.1697">postalCode</text><text fill="#000000" font-family="sans-serif" font-size="14" lengthAdjust="spacing" textLength="76.5797" x="332.9436" y="96.1697">10021-3100</text><line style="stroke:#000000;stroke-width:1;" x1="327.9436" x2="327.9436" y1="79.2038" y2="102.2717"/><rect fill="none" height="92.2717" rx="5" ry="5" style="stroke:#000000;stroke-width:1.5;" width="205.8773" x="220" y="10"/><rect fill="#F1F1F1" height="46.1358" rx="5" ry="5" style="stroke:#F1F1F1;stroke-width:1.5;" width="20.92" x="312.5" y="120.0679"/><text fill="#000000" font-family="sans-serif" font-size="14" lengthAdjust="spacing" textLength="10.92" x="317.5" y="137.0339">&#160;&#160;&#160;</text><line style="stroke:#000000;stroke-width:1;" x1="312.5" x2="333.42" y1="143.1358" y2="143.1358"/><text fill="#000000" font-family="sans-serif" font-size="14" lengthAdjust="spacing" textLength="10.92" x="317.5" y="160.1018">&#160;&#160;&#160;</text><rect fill="none" height="46.1358" rx="5" ry="5" style="stroke:#000000;stroke-width:1.5;" width="20.92" x="312.5" y="120.0679"/><rect fill="#F1F1F1" height="46.1358" rx="5" ry="5" style="stroke:#F1F1F1;stroke-width:1.5;" width="163.8634" x="463" y="88.0679"/><text fill="#000000" font-family="sans-serif" font-size="14" font-weight="bold" lengthAdjust="spacing" textLength="31.1779" x="468" y="105.0339">type</text><text fill="#000000" font-family="sans-serif" font-size="14" lengthAdjust="spacing" textLength="38.1078" x="533.6358" y="105.0339">home</text><line style="stroke:#000000;stroke-width:1;" x1="528.6358" x2="528.6358" y1="88.0679" y2="111.1358"/><line style="stroke:#000000;stroke-width:1;" x1="463" x2="626.8634" y1="111.1358" y2="111.1358"/><text fill="#000000" font-family="sans-serif" font-size="14" font-weight="bold" lengthAdjust="spacing" textLength="55.6358" x="468" y="128.1018">number</text><text fill="#000000" font-family="sans-serif" font-size="14" lengthAdjust="spacing" textLength="88.2276" x="533.6358" y="128.1018">212 555-1234</text><line style="stroke:#000000;stroke-width:1;" x1="528.6358" x2="528.6358" y1="111.1358" y2="134.2038"/><rect fill="none" height="46.1358" rx="5" ry="5" style="stroke:#000000;stroke-width:1.5;" width="163.8634" x="463" y="88.0679"/><rect fill="#F1F1F1" height="46.1358" rx="5" ry="5" style="stroke:#F1F1F1;stroke-width:1.5;" width="163.8634" x="463" y="152.0679"/><text fill="#000000" font-family="sans-serif" font-size="14" font-weight="bold" lengthAdjust="spacing" textLength="31.1779" x="468" y="169.0339">type</text><text fill="#000000" font-family="sans-serif" font-size="14" lengthAdjust="spacing" textLength="36.3298" x="533.6358" y="169.0339">office</text><line style="stroke:#000000;stroke-width:1;" x1="528.6358" x2="528.6358" y1="152.0679" y2="175.1358"/><line style="stroke:#000000;stroke-width:1;" x1="463" x2="626.8634" y1="175.1358" y2="175.1358"/><text fill="#000000" font-family="sans-serif" font-size="14" font-weight="bold" lengthAdjust="spacing" textLength="55.6358" x="468" y="192.1018">number</text><text fill="#000000" font-family="sans-serif" font-size="14" lengthAdjust="spacing" textLength="88.2276" x="533.6358" y="192.1018">646 555-4567</text><line style="stroke:#000000;stroke-width:1;" x1="528.6358" x2="528.6358" y1="175.1358" y2="198.2038"/><rect fill="none" height="46.1358" rx="5" ry="5" style="stroke:#000000;stroke-width:1.5;" width="163.8634" x="463" y="152.0679"/><rect fill="#F1F1F1" height="15" rx="5" ry="5" style="stroke:#F1F1F1;stroke-width:1.5;" width="30" x="315" y="184.6358"/><rect fill="none" height="15" rx="5" ry="5" style="stroke:#000000;stroke-width:1.5;" width="30" x="315" y="184.6358"/><path d="M171,120.1358 L184,120.1358 C194.498,120.1358 211.7732,114.0001 230.6223,105.5282" fill="none" style="stroke:#000000;stroke-width:1;stroke-dasharray:3,3;"/><path d="M231.9102,108.3305 L232.7241,104.5622 L229.3343,102.7258 L237.6283,102.3083 L231.9102,108.3305" fill="#000000"/><ellipse cx="171" cy="120.1358" fill="#000000" rx="3" ry="3" style="stroke:#000000;stroke-width:1;"/><path d="M322.5,131.1358 L335.5,131.1358 C374.9747,131.1358 418.4534,127.5567 455.4841,123.4266" fill="none" style="stroke:#000000;stroke-width:1;stroke-dasharray:3,3;"/><path d="M455.8395,126.5467 L457.8241,123.16 L455.1286,120.3064 L463.2844,122.538 L455.8395,126.5467" fill="#000000"/><ellipse cx="322.5" cy="131.1358" fill="#000000" rx="3" ry="3" style="stroke:#000000;stroke-width:1;"/><path d="M322.5,155.1358 L335.5,155.1358 C374.9747,155.1358 418.4534,158.715 455.4841,162.8451" fill="none" style="stroke:#000000;stroke-width:1;stroke-dasharray:3,3;"/><path d="M455.1286,165.9652 L457.8241,163.1117 L455.8395,159.725 L463.2844,163.7337 L455.1286,165.9652" fill="#000000"/><ellipse cx="322.5" cy="155.1358" fill="#000000" rx="3" ry="3" style="stroke:#000000;stroke-width:1;"/><path d="M171,143.1358 L184,143.1358 C227.6109,143.1358 278.9462,143.1358 305.1705,143.1358" fill="none" style="stroke:#000000;stroke-width:1;stroke-dasharray:3,3;"/><path d="M305.1705,146.172 L307.4476,143.1358 L305.1705,140.0997 L312.7609,143.1358 L305.1705,146.172" fill="#000000"/><ellipse cx="171" cy="143.1358" fill="#000000" rx="3" ry="3" style="stroke:#000000;stroke-width:1;"/><path d="M171,166.1358 L184,166.1358 C200.4924,166.1358 203.8518,171.7839 220,175.1358 C250.9081,181.5516 287.4573,187.1399 307.4918,190.034" fill="none" style="stroke:#000000;stroke-width:1;stroke-dasharray:3,3;"/><path d="M307.0638,193.0382 L309.745,190.3549 L307.9198,187.0298 L315.0023,191.1039 L307.0638,193.0382" fill="#000000"/><ellipse cx="171" cy="166.1358" fill="#000000" rx="3" ry="3" style="stroke:#000000;stroke-width:1;"/><?plantuml-src XP6zRiCW58LtFmLYTY93R4VgbAXR1o-Pegg3Qt2XnM01RXLLVlV2zK_SfVLYyvt3uLnyShws_jqPdNmdA3oubTRvgkuuVa3uoGYDqqbGzPrVEkd58aXtLl8pScy7FiFwBG9wN9QCMUvSGDCn09stdFlpAc5A4DKCNO3FyU1ifBz5GyM_qDNOZwqM9l1GghfkSM-2e1uD0ura6IMxGtXXi8nphruOpQkXU-KsDdXUzzzhWi_VUiWH9bn0-blJi7tgJr5H53j23pbUJMFwNwffMzdyaLlc9UJcHNdSvCBNopn98wGA5wdZ50jplHbSF44FIYLZSkAQmRzEo9vcjDoJ7m00?></g></svg>