<?plantuml 1.2026.1?><svg xmlns="http://www.w3.org/2000/svg" xmlns:xlink="http://www.w3.org/1999/xlink" contentStyleType="text/css" data-diagram-type="WBS" height="390px" preserveAspectRatio="none" style="width:662px;height:390px;background:#FFFFFF;" version="1.1" viewBox="0 0 662 390" width="662px" zoomAndPan="magnify"><defs/><g><line style="stroke:#181818;stroke-width:1.5;" x1="172.5968" x2="172.5968" y1="66.3441" y2="86.3441"/><rect fill="#F1F1F1" height="36.3441" style="stroke:#181818;stroke-width:1.5;" width="179.8171" x="82.6883" y="86.3441"/><text fill="#000000" font-family="sans-serif" font-size="12" lengthAdjust="spacing" textLength="159.8171" x="92.6883" y="109.1722">Decide on Job Requirements</text><line style="stroke:#181818;stroke-width:1.5;" x1="162.5968" x2="172.5968" y1="155.8603" y2="155.8603"/><rect fill="#F1F1F1" height="36.3441" style="stroke:#181818;stroke-width:1.5;" width="70.2084" x="92.3885" y="137.6882"/><text fill="#000000" font-family="sans-serif" font-size="12" lengthAdjust="spacing" textLength="50.2084" x="102.3885" y="160.5163">Checklist</text><line style="stroke:#181818;stroke-width:1.5;" x1="117.4926" x2="127.4926" y1="207.2044" y2="207.2044"/><rect fill="#F1F1F1" height="36.3441" style="stroke:#181818;stroke-width:1.5;" width="107.4926" x="10" y="189.0323"/><text fill="#000000" font-family="sans-serif" font-size="12" lengthAdjust="spacing" textLength="87.4926" x="20" y="211.8604">Responsibilities</text><line style="stroke:#181818;stroke-width:1.5;" x1="117.4926" x2="127.4926" y1="258.5485" y2="258.5485"/><rect fill="#F1F1F1" height="36.3441" style="stroke:#181818;stroke-width:1.5;" width="68.1443" x="49.3483" y="240.3765"/><text fill="#000000" font-family="sans-serif" font-size="12" lengthAdjust="spacing" textLength="48.1443" x="59.3483" y="263.2045">Location</text><line style="stroke:#181818;stroke-width:1.5;" x1="127.4926" x2="127.4926" y1="174.0323" y2="258.5485"/><line style="stroke:#181818;stroke-width:1.5;" x1="172.5968" x2="182.5968" y1="155.8603" y2="155.8603"/><rect fill="#F1F1F1" height="36.3441" style="stroke:#181818;stroke-width:1.5;" width="93.8725" x="182.5968" y="137.6882"/><text fill="#000000" font-family="sans-serif" font-size="12" lengthAdjust="spacing" textLength="73.8725" x="192.5968" y="160.5163">Identity gaps</text><line style="stroke:#181818;stroke-width:1.5;" x1="172.5968" x2="182.5968" y1="207.2044" y2="207.2044"/><rect fill="#F1F1F1" height="36.3441" style="stroke:#181818;stroke-width:1.5;" width="80.5284" x="182.5968" y="189.0323"/><text fill="#000000" font-family="sans-serif" font-size="12" lengthAdjust="spacing" textLength="60.5284" x="192.5968" y="211.8604">Review JDs</text><line style="stroke:#181818;stroke-width:1.5;" x1="222.861" x2="232.861" y1="258.5485" y2="258.5485"/><rect fill="#F1F1F1" height="36.3441" style="stroke:#181818;stroke-width:1.5;" width="130.7368" x="232.861" y="240.3765"/><text fill="#000000" font-family="sans-serif" font-size="12" lengthAdjust="spacing" textLength="110.7368" x="242.861" y="263.2045">Sign-Up for courses</text><line style="stroke:#181818;stroke-width:1.5;" x1="222.861" x2="232.861" y1="309.8926" y2="309.8926"/><rect fill="#F1F1F1" height="36.3441" style="stroke:#181818;stroke-width:1.5;" width="75.2124" x="232.861" y="291.7206"/><text fill="#000000" font-family="sans-serif" font-size="12" lengthAdjust="spacing" textLength="55.2124" x="242.861" y="314.5487">Volunteer</text><line style="stroke:#181818;stroke-width:1.5;" x1="222.861" x2="232.861" y1="361.2367" y2="361.2367"/><rect fill="#F1F1F1" height="36.3441" style="stroke:#181818;stroke-width:1.5;" width="66.2363" x="232.861" y="343.0647"/><text fill="#000000" font-family="sans-serif" font-size="12" lengthAdjust="spacing" textLength="46.2363" x="242.861" y="365.8928">Reading</text><line style="stroke:#181818;stroke-width:1.5;" x1="222.861" x2="222.861" y1="225.3765" y2="361.2367"/><line style="stroke:#181818;stroke-width:1.5;" x1="172.5968" x2="172.5968" y1="122.6882" y2="207.2044"/><line style="stroke:#181818;stroke-width:1.5;" x1="439.5222" x2="439.5222" y1="66.3441" y2="86.3441"/><rect fill="#F1F1F1" height="36.3441" style="stroke:#181818;stroke-width:1.5;" width="111.8487" x="383.5979" y="86.3441"/><text fill="#000000" font-family="sans-serif" font-size="12" lengthAdjust="spacing" textLength="91.8487" x="393.5979" y="109.1722">CV Upload Done</text><line style="stroke:#181818;stroke-width:1.5;" x1="439.5222" x2="464.2302" y1="155.8603" y2="155.8603"/><rect fill="#F1F1F1" height="36.3441" style="stroke:#181818;stroke-width:1.5;" width="86.6485" x="464.2302" y="137.6882"/><text fill="#000000" font-family="sans-serif" font-size="12" lengthAdjust="spacing" textLength="66.6485" x="474.2302" y="160.5163">CV Updated</text><line style="stroke:#181818;stroke-width:1.5;" x1="497.5544" x2="507.5544" y1="207.2044" y2="207.2044"/><rect fill="#F1F1F1" height="36.3441" style="stroke:#181818;stroke-width:1.5;" width="48.0322" x="449.5222" y="189.0323"/><text fill="#000000" font-family="sans-serif" font-size="12" lengthAdjust="spacing" textLength="28.0322" x="459.5222" y="211.8604">Skills</text><line style="stroke:#181818;stroke-width:1.5;" x1="507.5544" x2="517.5544" y1="207.2044" y2="207.2044"/><rect fill="#F1F1F1" height="36.3441" style="stroke:#181818;stroke-width:1.5;" width="134.3968" x="517.5544" y="189.0323"/><text fill="#000000" font-family="sans-serif" font-size="12" lengthAdjust="spacing" textLength="114.3968" x="527.5544" y="211.8604">Spelling &amp; Grammar</text><line style="stroke:#181818;stroke-width:1.5;" x1="507.5544" x2="517.5544" y1="258.5485" y2="258.5485"/><rect fill="#F1F1F1" height="36.3441" style="stroke:#181818;stroke-width:1.5;" width="88.0165" x="517.5544" y="240.3765"/><text fill="#000000" font-family="sans-serif" font-size="12" lengthAdjust="spacing" textLength="68.0165" x="527.5544" y="263.2045">Check dates</text><line style="stroke:#181818;stroke-width:1.5;" x1="507.5544" x2="507.5544" y1="174.0323" y2="258.5485"/><line style="stroke:#181818;stroke-width:1.5;" x1="439.5222" x2="449.5222" y1="309.8926" y2="309.8926"/><rect fill="#F1F1F1" height="36.3441" style="stroke:#181818;stroke-width:1.5;" width="161.829" x="449.5222" y="291.7206"/><text fill="#000000" font-family="sans-serif" font-size="12" lengthAdjust="spacing" textLength="141.829" x="459.5222" y="314.5487">Recruitment sites chosen</text><line style="stroke:#181818;stroke-width:1.5;" x1="439.5222" x2="439.5222" y1="122.6882" y2="309.8926"/><line style="stroke:#181818;stroke-width:1.5;" x1="172.5968" x2="439.5222" y1="66.3441" y2="66.3441"/><rect fill="#F1F1F1" height="36.3441" style="stroke:#181818;stroke-width:1.5;" width="66.3563" x="272.8813" y="10"/><text fill="#000000" font-family="sans-serif" font-size="12" lengthAdjust="spacing" textLength="46.3563" x="282.8813" y="32.8281">New Job</text><line style="stroke:#181818;stroke-width:1.5;" x1="306.0595" x2="306.0595" y1="46.3441" y2="66.3441"/><?plantuml-src DL2xRiCm3Dpz5Pow60gQ39q3n43HekZW8DbbYNM8oAGgqGtwzvLiLvFkGToHnwmswMF8JGkV-81t6PgsXGuTUGJXIa2FtpCbd92r-8hyvikNz1T66rUcnn-guzq2MpZJoEOIuKiIE9bJnasuIfXP4TCAUxIUU2p0mEc6xXueQvLCaN8KpZHG8ALrti27EAiaN5kUhd29GQo7JXYN7WlbhQBVUaGCeGJ04xmcEqrsorsoe1fpOyg3yvr2-D_5fPcqhWkPYWFSJJ9oSqJszLJDVdTuFhpizdy0?></g></svg>