<?plantuml 1.2026.1?><svg xmlns="http://www.w3.org/2000/svg" xmlns:xlink="http://www.w3.org/1999/xlink" contentStyleType="text/css" data-diagram-type="STATE" height="704px" preserveAspectRatio="none" style="width:416px;height:704px;background:#FFFFFF;" version="1.1" viewBox="0 0 416 704" width="416px" zoomAndPan="magnify"><defs/><g><!--cluster NotShooting--><g class="cluster" data-qualified-name="NotShooting" data-source-line="3" id="ent0002"><path d="M161.5,81 L242.5,81 A12.5,12.5 0 0 1 255,93.5 L255,105.0679 L149,105.0679 L149,93.5 A12.5,12.5 0 0 1 161.5,81" fill="#F1F1F1"/><rect fill="none" height="201" rx="12.5" ry="12.5" style="stroke:#181818;stroke-width:0.5;" width="106" x="149" y="81"/><line style="stroke:#181818;stroke-width:0.5;" x1="149" x2="255" y1="105.0679" y2="105.0679"/><text fill="#000000" font-family="sans-serif" font-size="14" lengthAdjust="spacing" textLength="83.3697" x="160.3152" y="99.9659">NotShooting</text></g><ellipse cx="206" cy="137" fill="#222222" rx="10" ry="10" style="stroke:#222222;stroke-width:1;"/><g><rect fill="#F1F1F1" height="50" rx="12.5" ry="12.5" style="stroke:#181818;stroke-width:0.5;" width="50" x="181" y="208"/><line style="stroke:#181818;stroke-width:0.5;" x1="181" x2="231" y1="237.0679" y2="237.0679"/><text fill="#000000" font-family="sans-serif" font-size="14" lengthAdjust="spacing" textLength="24.8639" x="193.568" y="227.9659">Idle</text></g><path d="M19.5,355 L390.89,355 A12.5,12.5 0 0 1 403.39,367.5 L403.39,384.0679 L7,384.0679 L7,367.5 A12.5,12.5 0 0 1 19.5,355" fill="#F1F1F1"/><rect fill="none" height="343.0679" rx="12.5" ry="12.5" style="stroke:#181818;stroke-width:0.5;" width="396.39" x="7" y="355"/><line style="stroke:#181818;stroke-width:0.5;" x1="7" x2="403.39" y1="384.0679" y2="384.0679"/><text fill="#000000" font-family="sans-serif" font-size="14" lengthAdjust="spacing" textLength="78.3157" x="166.0372" y="374.9659">Configuring</text><path d="M128.89,396.0679 L241.6155,396.0679 A12.5,12.5 0 0 1 254.1155,408.5679 L254.1155,425.1358 L116.39,425.1358 L116.39,408.5679 A12.5,12.5 0 0 1 128.89,396.0679" fill="#F1F1F1"/><rect fill="none" height="187.0679" rx="12.5" ry="12.5" style="stroke:#181818;stroke-width:0.5;" width="137.7255" x="116.39" y="396.0679"/><line style="stroke:#181818;stroke-width:0.5;" x1="116.39" x2="254.1155" y1="425.1358" y2="425.1358"/><text fill="#000000" font-family="sans-serif" font-size="14" lengthAdjust="spacing" textLength="117.7255" x="126.39" y="416.0339">NewValuePreview</text><g><rect fill="#F1F1F1" height="50" rx="12.5" ry="12.5" style="stroke:#181818;stroke-width:0.5;" width="61.5518" x="128.39" y="437.1358"/><line style="stroke:#181818;stroke-width:0.5;" x1="128.39" x2="189.9418" y1="466.2038" y2="466.2038"/><text fill="#000000" font-family="sans-serif" font-size="14" lengthAdjust="spacing" textLength="41.5518" x="138.39" y="457.1018">State1</text></g><g><rect fill="#F1F1F1" height="50" rx="12.5" ry="12.5" style="stroke:#181818;stroke-width:0.5;" width="61.5518" x="128.39" y="523.1358"/><line style="stroke:#181818;stroke-width:0.5;" x1="128.39" x2="189.9418" y1="552.2038" y2="552.2038"/><text fill="#000000" font-family="sans-serif" font-size="14" lengthAdjust="spacing" textLength="41.5518" x="138.39" y="543.1018">State2</text></g><!--link State1 to State2--><g class="link" data-entity-1="ent0015" data-entity-2="ent0016" data-link-type="dependency" data-source-line="16" id="lnk17"><path d="M159.39,487.4358 C159.39,498.5758 159.39,505.7558 159.39,516.8958" fill="none" id="State1-to-State2" style="stroke:#181818;stroke-width:1;"/><polygon fill="#181818" points="159.39,522.8958,163.39,513.8958,159.39,517.8958,155.39,513.8958,159.39,522.8958" style="stroke:#181818;stroke-width:1;"/></g><ellipse cx="385.39" cy="489.5679" fill="#222222" rx="10" ry="10" style="stroke:#222222;stroke-width:1;"/><g><rect fill="#F1F1F1" height="50" rx="12.5" ry="12.5" style="stroke:#181818;stroke-width:0.5;" width="145.5515" x="173.39" y="638.0679"/><line style="stroke:#181818;stroke-width:0.5;" x1="173.39" x2="318.9415" y1="667.1358" y2="667.1358"/><text fill="#000000" font-family="sans-serif" font-size="14" lengthAdjust="spacing" textLength="125.5515" x="183.39" y="658.0339">NewValueSelection</text></g><!--link *start*Configuring to NewValueSelection--><g class="link" data-entity-1="ent0009" data-entity-2="ent0010" data-link-type="dependency" data-source-line="10" id="lnk11"><path d="M385.82,500.0279 C386.35,523.3979 384.52,584.5379 353.39,620.0679 C344.31,630.4279 337.7945,635.705 325.1645,641.615" fill="none" id="*start*Configuring-to-NewValueSelection" style="stroke:#181818;stroke-width:1;"/><polygon fill="#181818" points="319.73,644.1579,329.577,643.9664,324.2587,642.0388,326.1864,636.7205,319.73,644.1579" style="stroke:#181818;stroke-width:1;"/></g><!--link NewValueSelection to NewValuePreview--><g class="link" data-entity-1="ent0010" data-entity-2="ent0004" data-link-type="dependency" data-source-line="11" id="lnk12"><path d="M274.82,637.7679 C283.86,627.0479 290.36,613.9679 285.39,601.0679 C278.5,583.1979 271.1154,571.0085 258.5854,556.1985" fill="none" id="NewValueSelection-to-NewValuePreview" style="stroke:#181818;stroke-width:1;"/><polygon fill="#181818" points="254.71,551.6179,257.4694,561.0723,257.9395,555.435,263.5768,555.9052,254.71,551.6179" style="stroke:#181818;stroke-width:1;"/><text fill="#000000" font-family="sans-serif" font-size="13" lengthAdjust="spacing" textLength="61.243" x="287.39" y="615.9649">NewValue</text></g><!--link NewValuePreview to NewValueSelection--><g class="link" data-entity-1="ent0004" data-entity-2="ent0010" data-link-type="dependency" data-source-line="12" id="lnk13"><path d="M116.04,520.4179 C68.11,545.2779 18,582.5579 48.39,620.0679 C64.09,639.4579 117.3302,649.5649 166.9502,655.3349" fill="none" id="NewValuePreview-to-NewValueSelection" style="stroke:#181818;stroke-width:1;"/><polygon fill="#181818" points="172.91,656.0279,164.4323,651.0151,167.9435,655.4504,163.5082,658.9616,172.91,656.0279" style="stroke:#181818;stroke-width:1;"/><text fill="#000000" font-family="sans-serif" font-size="13" lengthAdjust="spacing" textLength="113.6071" x="49.39" y="615.9649">NewValueRejected</text></g><!--link NewValuePreview to NewValueSelection--><g class="link" data-entity-1="ent0004" data-entity-2="ent0010" data-link-type="dependency" data-source-line="13" id="lnk14"><path d="M171.76,583.5579 C173.12,596.3379 176.35,608.8879 182.39,620.0679 C186.05,626.8479 186.7408,628.8647 192.7208,633.8747" fill="none" id="NewValuePreview-to-NewValueSelection-1" style="stroke:#181818;stroke-width:1;"/><polygon fill="#181818" points="197.32,637.7279,192.99,628.882,193.4873,634.5169,187.8524,635.0143,197.32,637.7279" style="stroke:#181818;stroke-width:1;"/><text fill="#000000" font-family="sans-serif" font-size="13" lengthAdjust="spacing" textLength="97.604" x="183.39" y="615.9649">NewValueSaved</text></g><ellipse cx="157" cy="16" fill="#222222" rx="10" ry="10" style="stroke:#222222;stroke-width:1;"/><!--link *start* to NotShooting--><g class="link" data-entity-1="ent0002" data-entity-2="ent0002" data-link-type="dependency" data-source-line="1" id="lnk3"><path d="M157,26.34 C157,33.2425 157,43.3888 157,54.7642 C157,60.452 157,66.447 157,72.4975 C157,74.0102 157,75.5263 157,77.0419 C157,77.7997 157,78.5574 157,79.3145 C157,79.693 157,74.0714 157,74.4496" fill="none" id="*start*-to-NotShooting" style="stroke:#181818;stroke-width:1;"/><polygon fill="#181818" points="157,80.4496,161,71.4496,157,75.4496,153,71.4496,157,80.4496" style="stroke:#181818;stroke-width:1;"/></g><!--link *start*NotShooting to Idle--><g class="link" data-entity-1="ent0004" data-entity-2="ent0005" data-link-type="dependency" data-source-line="4" id="lnk6"><path d="M206,147.36 C206,161.29 206,181.95 206,201.65" fill="none" id="*start*NotShooting-to-Idle" style="stroke:#181818;stroke-width:1;"/><polygon fill="#181818" points="206,207.65,210,198.65,206,202.65,202,198.65,206,207.65" style="stroke:#181818;stroke-width:1;"/></g><!--link Idle to Configuring--><g class="link" data-entity-1="ent0005" data-entity-2="ent0003" data-link-type="dependency" data-source-line="5" id="lnk7"><path d="M206.42,258.33 C206.64,272.28 206.89,290.12 207,306 C207.11,321.81 207.1446,332.27 207.1046,348.74" fill="none" id="Idle-to-Configuring" style="stroke:#181818;stroke-width:1;"/><polygon fill="#181818" points="207.09,354.74,211.1118,345.7497,207.1021,349.74,203.1119,345.7303,207.09,354.74" style="stroke:#181818;stroke-width:1;"/><text fill="#000000" font-family="sans-serif" font-size="13" lengthAdjust="spacing" textLength="39.936" x="208" y="320.897">Config</text></g><!--link Configuring to Idle--><g class="link" data-entity-1="ent0003" data-entity-2="ent0005" data-link-type="dependency" data-source-line="6" id="lnk8"><path d="M151.44,354.63 C151.34,338.1 153.26,321.67 158,306 C163.27,288.6 170.6104,276.317 180.7604,263.187" fill="none" id="Configuring-to-Idle" style="stroke:#181818;stroke-width:1;"/><polygon fill="#181818" points="184.43,258.44,175.7609,263.1141,181.372,262.3958,182.0902,268.0069,184.43,258.44" style="stroke:#181818;stroke-width:1;"/><text fill="#000000" font-family="sans-serif" font-size="13" lengthAdjust="spacing" textLength="39.936" x="159" y="320.897">Config</text></g><?plantuml-src YzQALT3LjLFmooy9piZFBydCI-VYAYv9B4b55bAevb80WcYeOi-Kd5Im08W15d7EpqlBJ2yj0gcrWlB0Af0bO5eHAcfXTY4hGxNBBxKyB36dD3KuDISrkIGpFmyiYo6AeZQWABKiCxKSQ0zC14KJJ1ghyKYQWbApW6AfAMHf3aui0-e4QuK69ve146-2G318tX1i8fXf19QfvQe50000?></g></svg>