<?plantuml 1.2026.1?><svg xmlns="http://www.w3.org/2000/svg" xmlns:xlink="http://www.w3.org/1999/xlink" contentStyleType="text/css" data-diagram-type="MINDMAP" height="405px" preserveAspectRatio="none" style="width:621px;height:405px;background:#FFFFFF;" version="1.1" viewBox="0 0 621 405" width="621px" zoomAndPan="magnify"><defs/><g><rect fill="#F1F1F1" height="39.0679" rx="12.5" ry="12.5" style="stroke:#181818;stroke-width:1.5;" width="38.6199" x="311.8673" y="182.4368"/><text fill="#000000" font-family="sans-serif" font-size="14" lengthAdjust="spacing" textLength="18.6199" x="321.8673" y="207.4027">OS</text><rect fill="#F1F1F1" height="39.0679" rx="12.5" ry="12.5" style="stroke:#181818;stroke-width:1.5;" width="69.8538" x="400.4873" y="108.6019"/><text fill="#000000" font-family="sans-serif" font-size="14" lengthAdjust="spacing" textLength="49.8538" x="410.4873" y="133.5678">Ubuntu</text><rect fill="#F1F1F1" height="39.0679" rx="12.5" ry="12.5" style="stroke:#181818;stroke-width:1.5;" width="89.3137" x="520.3411" y="20"/><text fill="#000000" font-family="sans-serif" font-size="14" lengthAdjust="spacing" textLength="69.3137" x="530.3411" y="44.9659">Linux Mint</text><path d="M470.3411,128.1358 L480.3411,128.1358 C495.3411,128.1358 495.3411,39.534 510.3411,39.534 L520.3411,39.534" fill="none" style="stroke:#181818;stroke-width:1;"/><rect fill="#F1F1F1" height="39.0679" rx="12.5" ry="12.5" style="stroke:#181818;stroke-width:1.5;" width="76.9378" x="520.3411" y="79.0679"/><text fill="#000000" font-family="sans-serif" font-size="14" lengthAdjust="spacing" textLength="56.9378" x="530.3411" y="104.0339">Kubuntu</text><path d="M470.3411,128.1358 L480.3411,128.1358 C495.3411,128.1358 495.3411,98.6019 510.3411,98.6019 L520.3411,98.6019" fill="none" style="stroke:#181818;stroke-width:1;"/><rect fill="#F1F1F1" height="39.0679" rx="12.5" ry="12.5" style="stroke:#181818;stroke-width:1.5;" width="75.6078" x="520.3411" y="138.1358"/><text fill="#000000" font-family="sans-serif" font-size="14" lengthAdjust="spacing" textLength="55.6078" x="530.3411" y="163.1018">Lubuntu</text><path d="M470.3411,128.1358 L480.3411,128.1358 C495.3411,128.1358 495.3411,157.6698 510.3411,157.6698 L520.3411,157.6698" fill="none" style="stroke:#181818;stroke-width:1;"/><rect fill="#F1F1F1" height="39.0679" rx="12.5" ry="12.5" style="stroke:#181818;stroke-width:1.5;" width="85.9677" x="520.3411" y="197.2038"/><text fill="#000000" font-family="sans-serif" font-size="14" lengthAdjust="spacing" textLength="65.9677" x="530.3411" y="222.1697">KDE Neon</text><path d="M470.3411,128.1358 L480.3411,128.1358 C495.3411,128.1358 495.3411,216.7377 510.3411,216.7377 L520.3411,216.7377" fill="none" style="stroke:#181818;stroke-width:1;"/><path d="M350.4873,201.9707 L360.4873,201.9707 C375.4873,201.9707 375.4873,128.1358 390.4873,128.1358 L400.4873,128.1358" fill="none" style="stroke:#181818;stroke-width:1;"/><rect fill="#F1F1F1" height="39.0679" rx="12.5" ry="12.5" style="stroke:#181818;stroke-width:1.5;" width="58.0378" x="400.4873" y="167.6698"/><text fill="#000000" font-family="sans-serif" font-size="14" lengthAdjust="spacing" textLength="38.0378" x="410.4873" y="192.6357">LMDE</text><path d="M350.4873,201.9707 L360.4873,201.9707 C375.4873,201.9707 375.4873,187.2038 390.4873,187.2038 L400.4873,187.2038" fill="none" style="stroke:#181818;stroke-width:1;"/><rect fill="#F1F1F1" height="39.0679" rx="12.5" ry="12.5" style="stroke:#181818;stroke-width:1.5;" width="72.3878" x="400.4873" y="226.7377"/><text fill="#000000" font-family="sans-serif" font-size="14" lengthAdjust="spacing" textLength="52.3878" x="410.4873" y="251.7036">SolydXK</text><path d="M350.4873,201.9707 L360.4873,201.9707 C375.4873,201.9707 375.4873,246.2717 390.4873,246.2717 L400.4873,246.2717" fill="none" style="stroke:#181818;stroke-width:1;"/><rect fill="#F1F1F1" height="39.0679" rx="12.5" ry="12.5" style="stroke:#181818;stroke-width:1.5;" width="80.1998" x="400.4873" y="285.8056"/><text fill="#000000" font-family="sans-serif" font-size="14" lengthAdjust="spacing" textLength="60.1998" x="410.4873" y="310.7716">SteamOS</text><path d="M350.4873,201.9707 L360.4873,201.9707 C375.4873,201.9707 375.4873,305.3396 390.4873,305.3396 L400.4873,305.3396" fill="none" style="stroke:#181818;stroke-width:1;"/><rect fill="#F1F1F1" height="39.0679" rx="12.5" ry="12.5" style="stroke:#181818;stroke-width:1.5;" width="80.6058" x="400.4873" y="344.8735"/><text fill="#000000" font-family="sans-serif" font-size="14" lengthAdjust="spacing" textLength="60.6058" x="410.4873" y="369.8395">Raspbian</text><path d="M350.4873,201.9707 L360.4873,201.9707 C375.4873,201.9707 375.4873,364.4075 390.4873,364.4075 L400.4873,364.4075" fill="none" style="stroke:#181818;stroke-width:1;"/><rect fill="#F1F1F1" height="39.0679" rx="12.5" ry="12.5" style="stroke:#181818;stroke-width:1.5;" width="99.7297" x="162.1377" y="108.6019"/><text fill="#000000" font-family="sans-serif" font-size="14" lengthAdjust="spacing" textLength="79.7297" x="172.1377" y="133.5678">Windows 95</text><path d="M311.8673,201.9707 L301.8673,201.9707 C286.8673,201.9707 286.8673,128.1358 271.8673,128.1358 L261.8673,128.1358" fill="none" style="stroke:#181818;stroke-width:1;"/><rect fill="#F1F1F1" height="39.0679" rx="12.5" ry="12.5" style="stroke:#181818;stroke-width:1.5;" width="99.7297" x="162.1377" y="167.6698"/><text fill="#000000" font-family="sans-serif" font-size="14" lengthAdjust="spacing" textLength="79.7297" x="172.1377" y="192.6357">Windows 98</text><path d="M311.8673,201.9707 L301.8673,201.9707 C286.8673,201.9707 286.8673,187.2038 271.8673,187.2038 L261.8673,187.2038" fill="none" style="stroke:#181818;stroke-width:1;"/><rect fill="#F1F1F1" height="39.0679" rx="12.5" ry="12.5" style="stroke:#181818;stroke-width:1.5;" width="102.1377" x="159.7297" y="226.7377"/><text fill="#000000" font-family="sans-serif" font-size="14" lengthAdjust="spacing" textLength="82.1377" x="169.7297" y="251.7036">Windows NT</text><rect fill="#F1F1F1" height="39.0679" rx="12.5" ry="12.5" style="stroke:#181818;stroke-width:1.5;" width="91.7217" x="18.008" y="197.2038"/><text fill="#000000" font-family="sans-serif" font-size="14" lengthAdjust="spacing" textLength="71.7217" x="28.008" y="222.1697">Windows 8</text><path d="M159.7297,246.2717 L149.7297,246.2717 C134.7297,246.2717 134.7297,216.7377 119.7297,216.7377 L109.7297,216.7377" fill="none" style="stroke:#181818;stroke-width:1;"/><rect fill="#F1F1F1" height="39.0679" rx="12.5" ry="12.5" style="stroke:#181818;stroke-width:1.5;" width="99.7297" x="10" y="256.2717"/><text fill="#000000" font-family="sans-serif" font-size="14" lengthAdjust="spacing" textLength="79.7297" x="20" y="281.2376">Windows 10</text><path d="M159.7297,246.2717 L149.7297,246.2717 C134.7297,246.2717 134.7297,275.8056 119.7297,275.8056 L109.7297,275.8056" fill="none" style="stroke:#181818;stroke-width:1;"/><path d="M311.8673,201.9707 L301.8673,201.9707 C286.8673,201.9707 286.8673,246.2717 271.8673,246.2717 L261.8673,246.2717" fill="none" style="stroke:#181818;stroke-width:1;"/><?plantuml-src SoWkIImgoStCIybDBE3ILl0FvjBMLWXDAiqhAGMoj1LyClDAAnHyC_DAm5plKYGf9BQtYwk2Nsf-7aYtZw-BAuWEpi-fJ8dm1ZDBKXDp8MO79HON96Kcvd7fwYg40-tDBozMi3H5uLaWy_n2W3m4rmA5PsZ0vP0AT3lK_Lo6UaO6HcPwXW00?></g></svg>