<?plantuml 1.2026.1?><svg xmlns="http://www.w3.org/2000/svg" xmlns:xlink="http://www.w3.org/1999/xlink" contentStyleType="text/css" data-diagram-type="ACTIVITY" height="304px" preserveAspectRatio="none" style="width:176px;height:304px;background:#FFFFFF;" version="1.1" viewBox="0 0 176 304" width="176px" zoomAndPan="magnify"><defs/><g><ellipse cx="74.7424" cy="20" fill="#222222" rx="10" ry="10" style="stroke:#222222;stroke-width:1;"/><rect fill="#F1F1F1" height="36.3441" rx="12.5" ry="12.5" style="stroke:#181818;stroke-width:0.5;" width="74.1324" x="37.6762" y="94"/><text fill="#000000" font-family="sans-serif" font-size="12" lengthAdjust="spacing" textLength="54.1324" x="47.6762" y="116.8281">read data</text><rect fill="#F1F1F1" height="36.3441" rx="12.5" ry="12.5" style="stroke:#181818;stroke-width:0.5;" width="127.4848" x="11" y="157.8441"/><text fill="#000000" font-family="sans-serif" font-size="12" lengthAdjust="spacing" textLength="107.4848" x="21" y="180.6722">generate diagrams</text><polygon fill="#F1F1F1" points="74.7424,50,86.7424,62,74.7424,74,62.7424,62,74.7424,50" style="stroke:#181818;stroke-width:0.5;"/><polygon fill="#F1F1F1" points="45.5431,214.1882,103.9417,214.1882,115.9417,226.1882,103.9417,238.1882,45.5431,238.1882,33.5431,226.1882,45.5431,214.1882" style="stroke:#181818;stroke-width:0.5;"/><text fill="#000000" font-family="sans-serif" font-size="11" lengthAdjust="spacing" textLength="13.4529" x="78.7424" y="249.9471">no</text><text fill="#000000" font-family="sans-serif" font-size="11" lengthAdjust="spacing" textLength="58.3986" x="45.5431" y="230.4562">more data?</text><text fill="#000000" font-family="sans-serif" font-size="11" lengthAdjust="spacing" textLength="17.0829" x="115.9417" y="222.9653">yes</text><ellipse cx="74.7424" cy="282.4471" fill="none" rx="11" ry="11" style="stroke:#222222;stroke-width:1;"/><ellipse cx="74.7424" cy="282.4471" fill="#222222" rx="6" ry="6" style="stroke:#222222;stroke-width:1;"/><line style="stroke:#181818;stroke-width:1;" x1="74.7424" x2="74.7424" y1="130.3441" y2="157.8441"/><polygon fill="#181818" points="70.7424,147.8441,74.7424,157.8441,78.7424,147.8441,74.7424,151.8441" style="stroke:#181818;stroke-width:1;"/><line style="stroke:#181818;stroke-width:1;" x1="74.7424" x2="74.7424" y1="74" y2="94"/><polygon fill="#181818" points="70.7424,84,74.7424,94,78.7424,84,74.7424,88" style="stroke:#181818;stroke-width:1;"/><line style="stroke:#181818;stroke-width:1;" x1="115.9417" x2="150.4848" y1="226.1882" y2="226.1882"/><polygon fill="#181818" points="146.4848,150.3441,150.4848,140.3441,154.4848,150.3441,150.4848,146.3441" style="stroke:#181818;stroke-width:1;"/><line style="stroke:#181818;stroke-width:1;" x1="150.4848" x2="150.4848" y1="62" y2="226.1882"/><line style="stroke:#181818;stroke-width:1;" x1="150.4848" x2="86.7424" y1="62" y2="62"/><polygon fill="#181818" points="96.7424,58,86.7424,62,96.7424,66,92.7424,62" style="stroke:#181818;stroke-width:1;"/><line style="stroke:#181818;stroke-width:1;" x1="74.7424" x2="74.7424" y1="194.1882" y2="214.1882"/><polygon fill="#181818" points="70.7424,204.1882,74.7424,214.1882,78.7424,204.1882,74.7424,208.1882" style="stroke:#181818;stroke-width:1;"/><line style="stroke:#181818;stroke-width:1;" x1="74.7424" x2="74.7424" y1="30" y2="50"/><polygon fill="#181818" points="70.7424,40,74.7424,50,78.7424,40,74.7424,44" style="stroke:#181818;stroke-width:1;"/><line style="stroke:#181818;stroke-width:1;" x1="74.7424" x2="74.7424" y1="238.1882" y2="271.4471"/><polygon fill="#181818" points="70.7424,261.4471,74.7424,271.4471,78.7424,261.4471,74.7424,265.4471" style="stroke:#181818;stroke-width:1;"/><?plantuml-src BOj12e0m30JlVSKUso_OWsy9TAa5RKiI47-lg7CRc34NzQ2S50zuM9HIKCGbVrxPgU94QL9L3ij_ZdDhEn6FeNo7DQ4PuaLBwCCH-qZ1VCmR?></g></svg>