<?plantuml 1.2026.1?><svg xmlns="http://www.w3.org/2000/svg" xmlns:xlink="http://www.w3.org/1999/xlink" contentStyleType="text/css" data-diagram-type="STATE" height="334px" preserveAspectRatio="none" style="width:117px;height:334px;background:#FFFFFF;" version="1.1" viewBox="0 0 117 334" width="117px" zoomAndPan="magnify"><defs/><g><ellipse cx="38" cy="16" fill="#222222" rx="10" ry="10" style="stroke:#222222;stroke-width:1;"/><g><rect fill="#F1F1F1" height="50" rx="12.5" ry="12.5" style="stroke:#181818;stroke-width:0.5;" width="61.5518" x="7" y="86"/><line style="stroke:#181818;stroke-width:0.5;" x1="7" x2="68.5518" y1="115.0679" y2="115.0679"/><text fill="#000000" font-family="sans-serif" font-size="14" lengthAdjust="spacing" textLength="41.5518" x="17" y="105.9659">State1</text></g><ellipse cx="38" cy="317" fill="none" rx="11" ry="11" style="stroke:#222222;stroke-width:1;"/><ellipse cx="38" cy="317" fill="#222222" rx="6" ry="6" style="stroke:#222222;stroke-width:1;"/><g><rect fill="#F1F1F1" height="50" rx="12.5" ry="12.5" style="stroke:#181818;stroke-width:0.5;" width="61.5518" x="49" y="196"/><line style="stroke:#181818;stroke-width:0.5;" x1="49" x2="110.5518" y1="225.0679" y2="225.0679"/><text fill="#000000" font-family="sans-serif" font-size="14" lengthAdjust="spacing" textLength="41.5518" x="59" y="215.9659">State2</text></g><!--link *start* to State1--><g class="link" data-entity-1="ent0002" data-entity-2="ent0003" data-link-type="dependency" data-source-line="1" id="lnk4"><path d="M38,26.26 C38,39.95 38,60.07 38,79.52" fill="none" id="*start*-to-State1" style="stroke:#181818;stroke-width:1;"/><polygon fill="#181818" points="38,85.52,42,76.52,38,80.52,34,76.52,38,85.52" style="stroke:#181818;stroke-width:1;"/></g><!--link State1 to *end*--><g class="link" data-entity-1="ent0003" data-entity-2="ent0005" data-link-type="dependency" data-source-line="2" id="lnk6"><path d="M35.25,136.21 C32.55,163.04 29.09,207.61 31,246 C32.06,267.22 34.1599,285.9871 35.8799,299.6371" fill="none" id="State1-to-*end*" style="stroke:#181818;stroke-width:1;"/><polygon fill="#181818" points="36.63,305.59,39.4734,296.1605,36.0049,300.6292,31.5362,297.1607,36.63,305.59" style="stroke:#181818;stroke-width:1;"/></g><!--link State1 to State2--><g class="link" data-entity-1="ent0003" data-entity-2="ent0007" data-link-type="dependency" data-source-line="3" id="lnk8"><path d="M47.43,136.24 C54.34,154.02 61.5244,172.4883 68.4344,190.2483" fill="none" id="State1-to-State2" style="stroke:#181818;stroke-width:1;"/><polygon fill="#181818" points="70.61,195.84,71.0744,186.0021,68.797,191.1803,63.6188,188.9029,70.61,195.84" style="stroke:#181818;stroke-width:1;"/></g><!--link State2 to *end*--><g class="link" data-entity-1="ent0007" data-entity-2="ent0005" data-link-type="dependency" data-source-line="4" id="lnk9"><path d="M69.18,246.21 C60.43,265.79 51.0166,286.8615 44.7466,300.9015" fill="none" id="State2-to-*end*" style="stroke:#181818;stroke-width:1;"/><polygon fill="#181818" points="42.3,306.38,49.6222,299.7933,44.3388,301.8146,42.3176,296.5312,42.3,306.38" style="stroke:#181818;stroke-width:1;"/></g><?plantuml-src YzQALT3LjLC8BaaiIJNaWb1WaMYjM6Gkc6a44J62AG00?></g></svg>