<?plantuml 1.2026.1?><svg xmlns="http://www.w3.org/2000/svg" xmlns:xlink="http://www.w3.org/1999/xlink" contentStyleType="text/css" data-diagram-type="ACTIVITY" height="247px" preserveAspectRatio="none" style="width:519px;height:247px;background:#FFFFFF;" version="1.1" viewBox="0 0 519 247" width="519px" zoomAndPan="magnify"><defs/><g><ellipse cx="259.2127" cy="20" fill="#222222" rx="10" ry="10" style="stroke:#222222;stroke-width:1;"/><polygon fill="#F1F1F1" points="247.1183,50,271.3071,50,283.3071,62,271.3071,74,247.1183,74,235.1183,62,247.1183,50" style="stroke:#181818;stroke-width:0.5;"/><text fill="#000000" font-family="sans-serif" font-size="11" lengthAdjust="spacing" textLength="24.1888" x="247.1183" y="66.268">test?</text><rect fill="#F1F1F1" height="36.3441" rx="12.5" ry="12.5" style="stroke:#181818;stroke-width:0.5;" width="54.1042" x="11" y="113.9638"/><text fill="#000000" font-family="sans-serif" font-size="12" lengthAdjust="spacing" textLength="34.1042" x="21" y="136.7919">Text 1</text><rect fill="#F1F1F1" height="36.3441" rx="12.5" ry="12.5" style="stroke:#181818;stroke-width:0.5;" width="54.1042" x="112.2587" y="113.9638"/><text fill="#000000" font-family="sans-serif" font-size="12" lengthAdjust="spacing" textLength="34.1042" x="122.2587" y="136.7919">Text 2</text><rect fill="#F1F1F1" height="36.3441" rx="12.5" ry="12.5" style="stroke:#181818;stroke-width:0.5;" width="54.1042" x="213.6384" y="113.9638"/><text fill="#000000" font-family="sans-serif" font-size="12" lengthAdjust="spacing" textLength="34.1042" x="223.6384" y="136.7919">Text 3</text><rect fill="#F1F1F1" height="36.3441" rx="12.5" ry="12.5" style="stroke:#181818;stroke-width:0.5;" width="54.1042" x="314.82" y="113.9638"/><text fill="#000000" font-family="sans-serif" font-size="12" lengthAdjust="spacing" textLength="34.1042" x="324.82" y="136.7919">Text 4</text><rect fill="#F1F1F1" height="36.3441" rx="12.5" ry="12.5" style="stroke:#181818;stroke-width:0.5;" width="54.1042" x="417.0797" y="113.9638"/><text fill="#000000" font-family="sans-serif" font-size="12" lengthAdjust="spacing" textLength="34.1042" x="427.0797" y="136.7919">Text 5</text><polygon fill="#F1F1F1" points="259.2127,170.3079,259.2127,170.3079,271.2127,182.3079,259.2127,194.3079,259.2127,194.3079,247.2127,182.3079,259.2127,170.3079" style="stroke:#181818;stroke-width:0.5;"/><ellipse cx="259.2127" cy="225.3079" fill="none" rx="11" ry="11" style="stroke:#222222;stroke-width:1;"/><ellipse cx="259.2127" cy="225.3079" fill="#222222" rx="6" ry="6" style="stroke:#222222;stroke-width:1;"/><line style="stroke:#181818;stroke-width:1;" x1="235.1183" x2="38.0521" y1="62" y2="62"/><line style="stroke:#181818;stroke-width:1;" x1="38.0521" x2="38.0521" y1="62" y2="113.9638"/><polygon fill="#181818" points="34.0521,103.9638,38.0521,113.9638,42.0521,103.9638,38.0521,107.9638" style="stroke:#181818;stroke-width:1;"/><text fill="#000000" font-family="sans-serif" font-size="11" lengthAdjust="spacing" textLength="58.4866" x="40.9121" y="92.2499">condition A</text><line style="stroke:#181818;stroke-width:1;" x1="283.3071" x2="444.1318" y1="62" y2="62"/><line style="stroke:#181818;stroke-width:1;" x1="444.1318" x2="444.1318" y1="62" y2="113.9638"/><polygon fill="#181818" points="440.1318,103.9638,444.1318,113.9638,448.1318,103.9638,444.1318,107.9638" style="stroke:#181818;stroke-width:1;"/><text fill="#000000" font-family="sans-serif" font-size="11" lengthAdjust="spacing" textLength="57.5736" x="446.9918" y="92.2499">condition E</text><line style="stroke:#181818;stroke-width:1;" x1="139.3108" x2="139.3108" y1="62" y2="113.9638"/><polygon fill="#181818" points="135.3108,103.9638,139.3108,113.9638,143.3108,103.9638,139.3108,107.9638" style="stroke:#181818;stroke-width:1;"/><text fill="#000000" font-family="sans-serif" font-size="11" lengthAdjust="spacing" textLength="58.6076" x="142.1708" y="87.2499">condition B</text><line style="stroke:#181818;stroke-width:1;" x1="259.2127" x2="259.2127" y1="74" y2="87.3213"/><line style="stroke:#181818;stroke-width:1;" x1="259.2127" x2="240.6905" y1="87.3213" y2="87.3213"/><line style="stroke:#181818;stroke-width:1;" x1="240.6905" x2="240.6905" y1="87.3213" y2="113.9638"/><polygon fill="#181818" points="236.6905,103.9638,240.6905,113.9638,244.6905,103.9638,240.6905,107.9638" style="stroke:#181818;stroke-width:1;"/><text fill="#000000" font-family="sans-serif" font-size="11" lengthAdjust="spacing" textLength="58.4096" x="243.5505" y="93.2499">condition C</text><line style="stroke:#181818;stroke-width:1;" x1="341.8721" x2="341.8721" y1="62" y2="113.9638"/><polygon fill="#181818" points="337.8721,103.9638,341.8721,113.9638,345.8721,103.9638,341.8721,107.9638" style="stroke:#181818;stroke-width:1;"/><text fill="#000000" font-family="sans-serif" font-size="11" lengthAdjust="spacing" textLength="59.4876" x="344.7321" y="87.2499">condition D</text><line style="stroke:#181818;stroke-width:1;" x1="38.0521" x2="38.0521" y1="150.3079" y2="182.3079"/><line style="stroke:#181818;stroke-width:1;" x1="38.0521" x2="247.2127" y1="182.3079" y2="182.3079"/><polygon fill="#181818" points="237.2127,178.3079,247.2127,182.3079,237.2127,186.3079,241.2127,182.3079" style="stroke:#181818;stroke-width:1;"/><line style="stroke:#181818;stroke-width:1;" x1="444.1318" x2="444.1318" y1="150.3079" y2="182.3079"/><line style="stroke:#181818;stroke-width:1;" x1="444.1318" x2="271.2127" y1="182.3079" y2="182.3079"/><polygon fill="#181818" points="281.2127,178.3079,271.2127,182.3079,281.2127,186.3079,277.2127,182.3079" style="stroke:#181818;stroke-width:1;"/><line style="stroke:#181818;stroke-width:1;" x1="139.3108" x2="139.3108" y1="150.3079" y2="182.3079"/><polygon fill="#181818" points="135.3108,172.3079,139.3108,182.3079,143.3108,172.3079,139.3108,176.3079" style="stroke:#181818;stroke-width:1;"/><line style="stroke:#181818;stroke-width:1;" x1="240.6905" x2="240.6905" y1="150.3079" y2="155.3079"/><line style="stroke:#181818;stroke-width:1;" x1="240.6905" x2="259.2127" y1="155.3079" y2="155.3079"/><line style="stroke:#181818;stroke-width:1;" x1="259.2127" x2="259.2127" y1="155.3079" y2="170.3079"/><polygon fill="#181818" points="255.2127,160.3079,259.2127,170.3079,263.2127,160.3079,259.2127,164.3079" style="stroke:#181818;stroke-width:1;"/><line style="stroke:#181818;stroke-width:1;" x1="341.8721" x2="341.8721" y1="150.3079" y2="182.3079"/><polygon fill="#181818" points="337.8721,172.3079,341.8721,182.3079,345.8721,172.3079,341.8721,176.3079" style="stroke:#181818;stroke-width:1;"/><line style="stroke:#181818;stroke-width:1;" x1="259.2127" x2="259.2127" y1="30" y2="50"/><polygon fill="#181818" points="255.2127,40,259.2127,50,263.2127,40,259.2127,44" style="stroke:#181818;stroke-width:1;"/><line style="stroke:#181818;stroke-width:1;" x1="259.2127" x2="259.2127" y1="194.3079" y2="214.3079"/><polygon fill="#181818" points="255.2127,204.3079,259.2127,214.3079,263.2127,204.3079,259.2127,208.3079" style="stroke:#181818;stroke-width:1;"/><?plantuml-src Aov9B2hXAYxFB4dEKD0eIIqkiTVaIauiJbNGK4ZEpql9BCdCprDmLD3aKW02gv3KYX85GsjC5KueAeomg716KM6CHOKBYWeJB2fSKLIOMdEbvgL0tCvLN99V0000?></g></svg>