<?plantuml 1.2026.1?><svg xmlns="http://www.w3.org/2000/svg" xmlns:xlink="http://www.w3.org/1999/xlink" contentStyleType="text/css" data-diagram-type="ACTIVITY" height="195px" preserveAspectRatio="none" style="width:76px;height:195px;background:#FFFFFF;" version="1.1" viewBox="0 0 76 195" width="76px" zoomAndPan="magnify"><defs/><g><ellipse cx="38.0521" cy="20" fill="#222222" rx="10" ry="10" style="stroke:#222222;stroke-width:1;"/><rect fill="#F1F1F1" height="36.3441" rx="12.5" ry="12.5" style="stroke:#181818;stroke-width:0.5;" width="54.1042" x="11" y="50"/><text fill="#000000" font-family="sans-serif" font-size="12" lengthAdjust="spacing" textLength="34.1042" x="21" y="72.8281">Text 1</text><rect fill="#F1F1F1" height="36.3441" rx="12.5" ry="12.5" style="stroke:#181818;stroke-width:0.5;" width="54.1042" x="11" y="106.3441"/><text fill="#000000" font-family="sans-serif" font-size="12" lengthAdjust="spacing" textLength="34.1042" x="21" y="129.1722">Text 2</text><ellipse cx="38.0521" cy="173.6882" fill="none" rx="11" ry="11" style="stroke:#222222;stroke-width:1;"/><ellipse cx="38.0521" cy="173.6882" fill="#222222" rx="6" ry="6" style="stroke:#222222;stroke-width:1;"/><line style="stroke:#181818;stroke-width:1;" x1="38.0521" x2="38.0521" y1="30" y2="50"/><polygon fill="#181818" points="34.0521,40,38.0521,50,42.0521,40,38.0521,44" style="stroke:#181818;stroke-width:1;"/><line style="stroke:#181818;stroke-width:1;" x1="38.0521" x2="38.0521" y1="86.3441" y2="106.3441"/><polygon fill="#181818" points="34.0521,96.3441,38.0521,106.3441,42.0521,96.3441,38.0521,100.3441" style="stroke:#181818;stroke-width:1;"/><line style="stroke:#181818;stroke-width:1;" x1="38.0521" x2="38.0521" y1="142.6882" y2="162.6882"/><polygon fill="#181818" points="34.0521,152.6882,38.0521,162.6882,42.0521,152.6882,38.0521,156.6882" style="stroke:#181818;stroke-width:1;"/><?plantuml-src Aov9B2hXiWf9hIXHCBI6CeoikOfByWi0?></g></svg>