<?plantuml 1.2026.1?><svg xmlns="http://www.w3.org/2000/svg" xmlns:xlink="http://www.w3.org/1999/xlink" contentStyleType="text/css" data-diagram-type="ACTIVITY" height="247px" preserveAspectRatio="none" style="width:210px;height:247px;background:#FFFFFF;" version="1.1" viewBox="0 0 210 247" width="210px" zoomAndPan="magnify"><defs/><g><ellipse cx="108.7424" cy="20" fill="#222222" rx="10" ry="10" style="stroke:#222222;stroke-width:1;"/><rect fill="#F1F1F1" height="36.3441" rx="12.5" ry="12.5" style="stroke:#181818;stroke-width:0.5;" width="74.1324" x="71.6762" y="112.9819"/><text fill="#000000" font-family="sans-serif" font-size="12" lengthAdjust="spacing" textLength="54.1324" x="81.6762" y="135.81">read data</text><rect fill="#F1F1F1" height="36.3441" rx="12.5" ry="12.5" style="stroke:#181818;stroke-width:0.5;" width="127.4848" x="45" y="177.3351"/><text fill="#000000" font-family="sans-serif" font-size="12" lengthAdjust="spacing" textLength="107.4848" x="55" y="200.1631">generate diagrams</text><polygon fill="#F1F1F1" points="70.5946,50,146.8901,50,158.8901,62,146.8901,74,70.5946,74,58.5946,62,70.5946,50" style="stroke:#181818;stroke-width:0.5;"/><text fill="#000000" font-family="sans-serif" font-size="11" lengthAdjust="spacing" textLength="17.0829" x="112.7424" y="85.7589">yes</text><text fill="#000000" font-family="sans-serif" font-size="11" lengthAdjust="spacing" textLength="76.2955" x="70.5946" y="66.268">data available?</text><text fill="#000000" font-family="sans-serif" font-size="11" lengthAdjust="spacing" textLength="13.4529" x="45.1417" y="58.777">no</text><ellipse cx="24" cy="109" fill="none" rx="11" ry="11" style="stroke:#222222;stroke-width:1;"/><ellipse cx="24" cy="109" fill="#222222" rx="6" ry="6" style="stroke:#222222;stroke-width:1;"/><line style="stroke:#181818;stroke-width:1;" x1="108.7424" x2="108.7424" y1="149.326" y2="177.3351"/><polygon fill="#181818" points="104.7424,167.3351,108.7424,177.3351,112.7424,167.3351,108.7424,171.3351" style="stroke:#181818;stroke-width:1;"/><line style="stroke:#181818;stroke-width:1;" x1="108.7424" x2="108.7424" y1="74" y2="112.9819"/><polygon fill="#181818" points="104.7424,102.9819,108.7424,112.9819,112.7424,102.9819,108.7424,106.9819" style="stroke:#181818;stroke-width:1;"/><line style="stroke:#181818;stroke-width:1;" x1="108.7424" x2="108.7424" y1="213.6792" y2="223.6792"/><line style="stroke:#181818;stroke-width:1;" x1="108.7424" x2="184.4848" y1="223.6792" y2="223.6792"/><polygon fill="#181818" points="180.4848,157.3351,184.4848,147.3351,188.4848,157.3351,184.4848,153.3351" style="stroke:#181818;stroke-width:1;"/><line style="stroke:#181818;stroke-width:1;" x1="184.4848" x2="184.4848" y1="62" y2="223.6792"/><line style="stroke:#181818;stroke-width:1;" x1="184.4848" x2="158.8901" y1="62" y2="62"/><polygon fill="#181818" points="168.8901,58,158.8901,62,168.8901,66,164.8901,62" style="stroke:#181818;stroke-width:1;"/><line style="stroke:#181818;stroke-width:1;" x1="58.5946" x2="24" y1="62" y2="62"/><line style="stroke:#181818;stroke-width:1;" x1="24" x2="24" y1="62" y2="98"/><polygon fill="#181818" points="20,88,24,98,28,88,24,92" style="stroke:#181818;stroke-width:1;"/><line style="stroke:#181818;stroke-width:1;" x1="108.7424" x2="108.7424" y1="30" y2="50"/><polygon fill="#181818" points="104.7424,40,108.7424,50,112.7424,40,108.7424,44" style="stroke:#181818;stroke-width:1;"/><?plantuml-src BOn12e0m30JlVKMExHVimRUiDDH0RIK9YhzNqRaD36CEzN2kqfXYWODmG1gMndCYCOeNMmhqC2cZqDlapojtLZXJ4LJ5PZbmB_-hZnJCntu3?></g></svg>